/* XPM */
static char *_ea42dedcae44b2ea1dbfaaec98a20cc5LvWWhMJH4NM5CXp[] = {
/* columns rows colors chars-per-pixel */
"64 64 213 2 ",
"   c #1B1917",
".  c #1D1B19",
"X  c #201E1C",
"o  c #22211F",
"O  c #252422",
"+  c #282725",
"@  c #292826",
"#  c #2D2D2B",
"$  c #2F302E",
"%  c #31312F",
"&  c #343432",
"*  c #383937",
"=  c #3C3D3B",
"-  c #383836",
";  c #302E2D",
":  c #403F3E",
">  c #40403E",
",  c #3F4140",
"<  c #444543",
"1  c #484847",
"2  c #4B4C4B",
"3  c #484847",
"4  c #4F504F",
"5  c #535453",
"6  c #5B5C5B",
"7  c #575857",
"8  c #4F5150",
"9  c #5F605F",
"0  c #646463",
"q  c #666867",
"w  c #6B6B6A",
"e  c #686867",
"r  c #766C6B",
"t  c #6F706F",
"y  c #72706F",
"u  c #737372",
"i  c #787676",
"p  c #7D7C7B",
"a  c #9E3732",
"s  c #B1342E",
"d  c #E5281F",
"f  c #C92C24",
"g  c #D42E27",
"h  c #DD2C25",
"j  c #D52F28",
"k  c #C3362E",
"l  c #CC352D",
"z  c #CD3027",
"x  c #D4322B",
"c  c #D8322A",
"v  c #DC3027",
"b  c #CC3C34",
"n  c #C63B34",
"m  c #D43A32",
"M  c #D23933",
"N  c #E42B24",
"B  c #E5272A",
"V  c #E5292A",
"C  c #E42727",
"Z  c #E62C33",
"A  c #E72E38",
"S  c #E52731",
"D  c #E6323C",
"F  c #E8333D",
"G  c #9B423D",
"H  c #A3423C",
"J  c #BC413A",
"K  c #CD433C",
"L  c #C3423B",
"P  c #D1423A",
"I  c #E73642",
"U  c #E73B4A",
"Y  c #E83C4A",
"T  c #E83642",
"R  c #945955",
"E  c #BD4A44",
"W  c #B94D47",
"Q  c #AD514C",
"!  c #B4514C",
"~  c #BD534D",
"^  c #A45D59",
"/  c #AB5D59",
"(  c #A95955",
")  c #B25E5A",
"_  c #BA5954",
"`  c #AA605C",
"'  c #B3625E",
"]  c #BA615C",
"[  c #8D6A68",
"{  c #976B69",
"}  c #98716E",
"|  c #827473",
" . c #827C7B",
".. c #8D7D7B",
"X. c #8B7775",
"o. c #9C7472",
"O. c #957A78",
"+. c #8B716F",
"@. c #AC6965",
"#. c #A76764",
"$. c #BC6661",
"%. c #B56B67",
"&. c #B4706D",
"*. c #A57673",
"=. c #A37C7A",
"-. c #AA7875",
";. c #B87976",
":. c #A3706D",
">. c #C64A44",
",. c #C3524C",
"<. c #CE554E",
"1. c #C45A54",
"2. c #C95A54",
"3. c #E94453",
"4. c #E74B5B",
"5. c #E94C5C",
"6. c #E84556",
"7. c #EB515E",
"8. c #E8414F",
"9. c #C7625D",
"0. c #EA5362",
"q. c #EA5B6D",
"w. c #E85569",
"e. c #E94E60",
"r. c #C46A64",
"t. c #C56662",
"y. c #C37B77",
"u. c #C0746F",
"i. c #EA6B7C",
"p. c #E96475",
"a. c #90817F",
"s. c #A8817F",
"d. c #BC817E",
"f. c #C2827E",
"g. c #EC7485",
"h. c #EB7A8C",
"j. c #EB768A",
"k. c #EA7E90",
"l. c #E96F80",
"z. c #848584",
"x. c #8B8483",
"c. c #8B8B8B",
"v. c #878887",
"b. c #9D8D8C",
"n. c #958786",
"m. c #9B9494",
"M. c #999695",
"N. c #929090",
"B. c #AD8582",
"V. c #A38D8C",
"C. c #AB8B89",
"Z. c #A48280",
"A. c #B48986",
"S. c #BB8D8A",
"D. c #B78986",
"F. c #A3908F",
"G. c #B8908D",
"H. c #AC9694",
"J. c #A69998",
"K. c #B59491",
"L. c #B49997",
"P. c #B4A09E",
"I. c #B4A3A2",
"U. c #ACA7A5",
"Y. c #C48A87",
"T. c #EC8494",
"R. c #EC8D9D",
"E. c #E98798",
"W. c #F0899A",
"Q. c #ED95A4",
"!. c #EE9CAA",
"~. c #F09AA9",
"^. c #ECA5B2",
"/. c #EDAEBA",
"(. c #EBA9B6",
"). c #F2A7B5",
"_. c #ECB1BD",
"`. c #F1B1BD",
"'. c #EDBAC5",
"]. c #F2BAC5",
"[. c #EEC2CC",
"{. c #F2C2CC",
"}. c #EECCD4",
"|. c #F2CCD5",
" X c #F4CCD6",
".X c #EED6DC",
"XX c #F1D4DC",
"oX c #F2DEE4",
"OX c #EFDEE3",
"+X c #EEE6E9",
"@X c #EEEEEE",
"#X c #EFE2E6",
"$X c #F1E3E7",
"%X c #F2E5EA",
"&X c #F3EAED",
"*X c #EFF0EF",
"=X c #F3EEF0",
"-X c #F8EDF1",
";X c #EFF1F0",
":X c #F3F5F5",
">X c #F4F4F4",
",X c gray96",
"<X c #F4F5F5",
"1X c #F6F6F6",
"2X c gray97",
"3X c #F6F7F7",
"4X c #F5F6F6",
"5X c #F3F3F3",
"6X c #F6F8F7",
"7X c #F6F8F8",
"8X c #F9F9F9",
"9X c #F9F9F9",
"0X c #EEEFF0",
/* pixels */
"9X@X2X@X6X0X6X*X2X@X5X5X5X5X&X2X&X6X0X2X@X2X@X6X@X6X@X2X@X6X@X2X@X2X&X5X5X;X2X0X6X@X2X@X2X@X9X@X2X@X2X@X2X0X2X*X2X*X5X5X5X5X&X9X",
"@X2X@X2X&X2X*X>X5X>X5X5X5X5X:X;X>X*X>X*X6X*X6X&X2X@X2X@X:X;X2X0X>X*X5X5X5X5X5X5X*X>X*X2X@X>X@X2X@X2X@X5X*X>X*X>X5X>X5X5X5X5X>X0X",
"5X5X5X5X5X5X5X5X5X5X5X*X5X5X5X5X5X5X*X>X5X>X5X>X5X5X*X>X&X5X5X5X5X5X5X5X5X5X5X5X5X5X5X0X>X*X>X*X5X*X5X5X>X5X5X5X5X*X5X5X5X5X5X>X",
"5X@X2X@X5X5X5X5X5X5X5X5X5X5X5X5X5X>X5X>X*X>X*X>X5X5X5X>X5X5X5X5X5X5X5X5X5X5X5X5X5X5X5X5X>X5X>X5X2X5X>X*X5X5X5X5X5X5X5X5X5X5X5X>X",
"@X2X@X2X0X2X*X>X5X:X5X5X5X5X5X*X5X*X2X0X2X@X2X@X2X@X2X@X5X@X2X@X>X5X5X5X*X5X5X5X5X>X*X6X*X>X@X2X&X2X@X2X0X>X0X>X5X5X*X5X5X5X5X0X",
"9X@X2X@X2X@X2X*X:X&X5X5X5X5X*X2X0X2X@X2X@X2X@X2X@X2X@X2X@X2X@X2X*X>X*X5X5X5X>X0X>X*X2X&X2X@X2X@X2X@X2X@X2X0X6X&X>X5X5X5X5X5X*X6X",
"+X6X@X6X@X2X@X>X0X>X5X5X5X5X>X*X2X@X6X&X2X@X2X@X2X@X2X@X2X@X2X*X2X*X5X5X5X>X5X>X*X2X0X6X@X2X@X2X@X2X@X2X@X2X*X2X&X2X5X5X5X5X>X*X",
"6X0X2X@X>X0X>X5X5X5X5X5X5X5X*X2X0X2X;X>X@X5X@X2X@X2X@X>X@X2X@X>X5X>X5X5X5X5X>X*X>X*X>X0X6X&X6X0X2X@X:X@X>X*X2X*X>X0X5X5X5X5X*X2X",
"&X2X5X>X0X5X5X5X5X5X5X5X5X5X5X5X5X5X5X*X>X5X>X5X>X5X>X5X5X5X5X5X5X*X5X5X*X5X5X5X5X5X5X5X;X:X5X>X5X>X5X>X*X5X5X5X5X5X*X5X5X5X5X5X",
";X5X*X>X5X5X5X5X5X5X5X5X5X5X5X5X5X5X5X0X>X*X>X*X>X*X>X*X5X5X5X5X5X5X5X5X5X5X5X5X5X5X5X>X5X5X*X>X*X>X*X5X5X5X5X5X5X5X5X5X5X5X5X*X",
"6X0X2X@X5X*X2X5X>X*X5X5X5X5X&X5X0X2X&X:X*X2X@X2X*X2X@X>X0X2X&X:X0X2X5X5X5X5X>X*X>X*X>X*X>X&X2X@X2X@X2X@X>X0X5X5X>X5X5X5X5X5X5X>X",
"@X6X@X6X@X2X;X:X*X>X5X5X5X5X2X;X2X0X6X@X2X@X2X@X2X@X6X@X2X0X2X*X2X&X5X5X5X5X5X2X*X2X@X2X@X2X@X2X@X2X@X2X@X2X@X2X*X>X5X5X5X5X>X@X",
"9X@X2X@X2X@X2X&X2X=X5X5X5X5X5X:X=X2X@X2X@X3X0X9X@X2X&X6X@X2X@X2X0X>X5X5X5X5X>X*X2X@X2X@X2X@X6X@X2X@X2X@X8X&X6X0X5X5X5X5X5X5X*X2X",
"@X2X@X>X@X2X@X5X0X5X5X:X&X*X5X5X5X@X2X@X2X0X3X|.&X*X6X0X2X*X>X*X>X*X5X5X*X5X0X2X5X>X0X2X0X>X@X2X@X2X@X2X X&X;X2X5X5X5X5X5X5X:X&X",
"5X5X5X5X5X5X5X5X5X5X:X=XR.Q.5X5X5X5X5X5X5X:X{.4.W.5X5X5X5X5X5X5X5X5X5X5X>X5X:X:X:X5X:X5X>X5X>X5X5X5X:X|.4.Q.5X5X5X5X5X5X5X5X5X5X",
"5X5X>X*X5X5X5X5X5X5X:X^.A F /.:X5X5X5X5X5XoX0.V F ^.5X>X*X5X5X5X5X5X5X5X5X{.Q.Q.~.Q.~.}.>X*X>X*X>X:XoX0.C I '.5X5X5X5X5X*X5X5X2X",
"@X2X@X2X@X5X*X>X5X:X'.U h C 3.|.6X0X:X5X&Xi.V z h T ].5X2X5X2X0X>X5X>X>X X6.C C V V V w..X6X@X2X0X&Xg.V z h 4.XX;X:X5X5X5X5X5X0X",
"2X@X2X@X2X@X2X*X:XXX4.N _ _ V q.OX6X@X2XE.Z P K.2.d 8.{.0X2X0X6X=X>X>X&Xi.C L 2.2.2.b V g.+X6X@X2XR.Z M K.1.B i.&X:X5X5X5X5X5X2X",
"@X2X@X2X0X2X@X2X#Xq.C 2.U.I.>.V h.@X6X^.D c G.z.P.P N 5. X#X%X#X%X$X%XW.V >.J.c.c.c.L.m Z Q.@X6X(.F c S.v.L.K Z R.:X=X5X5X5X5X@X",
"2X@X2X@X>X0X2X%Xg.V K J.< 5 K.m A !.'.8.h ;.p o 9 D.c N 3.5.5.0.0.5.4.F v B.6 . O . w S.c T ].[.Y h ;.p X 6 D.c I /.:X5X5X5X@X2X",
"*X>X*X>X5X5X5XR.Z x C.5 . . q ;.h U 3.N _ z.+ . o y ' h N N h v h h h h ^ w X X . . O p &.h 3.5.V _ x.+ . X y %.h 6.}.:X5X5X5X5X",
"5X>X5X>X5X5X^.D g -.6 2 1 . O i ) h B >.x.& 5 = o # a.W N N J G.K.K.-.s o.1 . X + + . # a.~ C V >.x.- 5 = . +  .~ V p.+X5X5X5X@X",
"2X*X1X0X6X%Xw.h ^ e @ v.M.* . # | E n X.= & J.N.o o - X.k N d.w 3 6 K.v _ y . o i i o . = ..n k +.= % M.M.# . & X.k Z R.5X5X5X5X",
"@X2X0X6X0X&Xw.x a.# @ V.@.p O . 1 &._ 0 . = K.-.u o > H.l P J.@   2 ;.h ,.a.. & F.V.5 . . 4 %._ q . = K.-.u . < H.l Z ).5X5X2X@X",
"2X@X2X@X2X+X7.m F.+ @ V.l :.4   2 l.&.q   = S.l s.5 N.1.d 2.p X . e 9.d <.p . & K.J a.$ . 1 Y.9.w   * G.l s.7 c.1.V g.&X:X5X5X2X",
"@X>X*X>X=X&X0.m F.+ @ n.c t.w   2 Y.%.0   = D.v J a.` h v d.4 . O | K N <.p . & G.v ` 7   3 d.r.q   * D.v J x.@.h 5.XX5X5X5X5X@X",
">X5X>X*X5X%X0.m V.O @ O.c 9.q   1 f.r.0   * A.N d H z N m s.$ . # O.c N 2.i . & C.v 9.u   , d.r.q   - A.v N s l F /.:X5X5X5X5X5X",
">X*X>X5X2X%X7.m n.O # O.c 1.9   1 d.$.9   * s.v N N N N >.u o . = } x x _ u   & C.v 9.t   , d.$.0   & B.v N N V h.=X5X5X5X5X5X2X",
"&X6X*X>X*X&X5.m n.O @ +.g _ 7   1 ;.$.9   - s.N N N d d &.4   . 1 J.I.K.^ t . & C.h 9.w   = d.$.9   & s.v N N 0..X:X5X5X5X5X5X0X",
"2X0X2X@X2X$X5.m n.O O  .D.C.4   1 &.] 7   & s.v N N d P a.$ . o + & w G._ w . $ s.h 1.q   = -.$.9   $ s.v N Z ^.7X&X5X5X=X5X*X2X",
"@X2X@X2X*X&X7.x ..O o = 5 4 # . 1 &.' 7   & =.v N N N L r o o o . O m.<.,.0 . $ s.h _ 0 . * -.' 7   $ O.v N A {.;X:X5X5X5X5X>X@X",
"6X0X>X*X2X$X5.m ..O X . . . . . < @.' 5 . % o.v N N N ' 1 . . . . 7 S.h 1.0 . $ =.v _ 9 . & *.' 7 . $ *.v N V h.5X:X5X*X5X5X5X2X",
"5X>X*X>X5X%X5.b | O o . X X X . < @.' 4 . % } v N N j +.c.v.w O + m.<.d ,.9 . % O.h _ 6 . & *./ 8 . # } v N N D (.2X;X5X5X5X5X5X",
"*X>X*X>X5X&X7.x | O O w z.z.> . > @./ 2 . % } v N k z H ) @.M.O 6 D.N d ~ 6 . $ o.h ~ 5 . & } / 4 . $ } v N k h 3.}.:X5X5X5X5X0X",
"2X*X1X*X>X$X5.b r O $ F.) -.y . > #.( 2 . # [ v K I.1.N d 2. .@ b.>.d N ~ 6 . # } h ! 5 . # { / 2 . # [ v K L.1.N i.+X:X5X5X5X>X",
"@X2X0X2X&X&X0.x r o $ s.h >.w . > ^ ( < . # [ k A.i V.P d y.7 6 ;.h N N ! 5 . $ { h ) 2 . # [ ^ 3 . @ +.k A.i b.b Z Q.:X5X5X>X@X",
"2X0X6X@X6X.X8.l r o ; } h E 9 . = ^ ( 3 . o a.C.y . 5 :.l C.< n.P N N N ! 5 . # [ >.L.= X @ [ R 4 . X  .C.y X 4 } j Y '.5X5X;X2X",
"&X6X@X2X0Xh.V ,.r o @ X.M r.6 . = *.! M.% . & q # . % b.Q c.e &.N N N N Q 4 . # | V.5 . . 6 *.W J.$ . & e # . & N.n V T.5X5X:X@X",
"5X5X>X5X(.D l s.1 . . e :...& . o p W ;.z.o . o . o v.y._ p n.b N N N c s.< . O u 7 X . < I.>.N ;.z.O . X X o z.y.h 3. X:X5X5X5X",
">X*X5X5XT.C J N.% . . 7 b.c.# . X u ' g A.9 . o . 0 S.g &.c.' N N N V s c.# X . O X . & J.,.B Z c A.0 . X . 0 D.c T `.5X5X5X5X>X",
"@X2X@X2X}.5.h y.p . & J.,.;.w . 1 L.b C b b.: . < F.b v V.V.M N N Y F v D.p X X X X + x.] N 5.k.Z n V.< . < V.b Z R.=X5X5X5X5X0X",
"2X@X2X@X7X_.F x C.8 i $.C b b.3 n.,.B U V W  .= x.E N b m./ N N 8.`.~.Z j B.0 X X X w @.h Y ].+Xi.C W  .= x.E V i.%X5X5X5X5X5X2X",
"@X2X@X2X&X>XE.V J n.} c A V W z.#.N 0.'.5.h ^ z.Q V B Q a.l C V T.*X5XW.V l O.z.v.z.{ j F ).0X7X}.6.h ( z.( N 5.XX:X5X5X5X5X5X@X",
"2X@X2X@X2X5X$Xw.N H k Z k.5.h Q z F _.7X(.T j G j A h R Q N C q.oX>X5X%Xg.C k ! _ Q z Z R.@X2X@X7X_.I g G g U '.2X5X5X5X5X5X0X2X",
"*X>X*X>X5X5X5X{.Y N C i.&X(.A h V T.5X5X:XE.Z N Z A j R x N Y '.>X5X5X5XoXp.B C C C B j.%X2X5X5X5X:XR.Z h Z Q.:X5X5X5X5X5X*X5X5X",
"5X>X5X>X;X5X5X:XQ.Z 3. X2X%Xi.B 0.oX:X0X>X$Xp.S w.D s a v A Q.5X>X5X5X5X>XXXR.E.E.T.Q.oX5X:X0X5X;X:X+Xi.S g.&X:X5X5X*X5X5X5X5X*X",
"2X&X>X*X>X0X2X0X%Xg.^.:X=X:X}.w.].7X;X2X0X4X}.h.E.Z s f N i.+X2X*X>X5X5X5X5X2X5X4X;X7X;X2X@X2X@X2X@X6X}.g..X6X;X5X5X5X5X5X5X5X2X",
"@X6X@X2X0X2X@X2X5X%X&X5X5X:X:XXX>X;X2X0X3X0X4X+Xg.h f N 5. X6X0X2X*X5X5X5X5X*X2X0X2X;X2X@X2X@X2X@X2X@X7X@X2X0X2X&X5X5X5X5X5X5X@X",
"2X@X6X@X2X0X>X*X2X5X5X5X*X5X5X2X*X2X&X6X@X2X0X&Xq.V N F (.3X0X:X0X5X5X5X5X5X>X*X2X*X6X0X2X@X2X@X2X@X2X@X6X0X2X*X2X*X5X*X5X5X&X6X",
"0X2X*X>X*X>X*X>X*X>X5X5X5X5X5X*X>X*X2X0X2X@X6X&X Xi.I T.5X@X2X=X>X5X5X5X5X5X5X>X*X>X*X>X&X>X@X2X@X2X@X2X*X>X*X>X5X>X5X5X5X5X5X5X",
">X5X>X*X>X5X>X5X>X5X5X5X5X5X5X5X5X5X5X>X0X>X5X>X5X5X[.$X5X5X5X5X5X5X&X5X5X5X5X5X5X5X5X5X5X5X>X5X5X5X5X5X>X5X5X5X5X5X5X5X5X5X5X5X",
">X*X>X5X>X5X5X*X5X5X5X5X5X5X5X5X5X>X*X>X*X>X*X>X5X:X5X:X5X5X5X5X5X5X5X5X5X5X5X5X5X5X5X5X5X;X>X*X5X5X5X*X5X5X5X5X5X5X5X5X5X5X5X>X",
"@X2X0X2X*X>X0X>X*X5X5X5X5X5X5X*X>X*X2X*X>X@X2X@X2X@X2X@X5X*X2X@X5X*X5X5X5X5X*X>X*X>X*X2X@X>X*X2X@X2X@X2X@X5X0X>X*X5X5X5X5X5X5X@X",
"2X@X6X0X2X*X2X0X2X5X5X*X5X5X&X2X*X>X0X2X@X2X@X2X@X2X@X2X@X2X@X2X*X2X5X5X5X5X5X*X2X@X6X&X2X@X2X@X2X@X2X@X2X@X2X;X2X5X5X*X5X5X5X2X",
"@X2X@X6X@X2X&X2X0X>X5X5X5X5X2X0X2X0X2X@X2X@X2X@X2X@X2X@X2X@X2X*X>X5X5X5X5X5X5X>X*X2X0X2X@X2X@X6X@X2X@X2X@X2X@X:X&X:X5X5X5X5X5X@X",
"2X@X>X&X>X*X2X;X>X*X5X5X5X5X5X5X0X2X&X>X@X2X@X2X@X2X@X5X@X2X@X>X*X5X5X5X5X5X5X5X>X*X>X0X2X0X2X0X2X@X2X@X2X@X2X&X5X5X5X5X5X5X0X2X",
"5X>X5X5X5X5X5X5X5X5X*X5X5X5X5X5X5X5X5X5X>X*X>X5X>X5X>X5X5X5X5X5X5X5X5X5X*X5X5X5X5X5X5X5X5X5X;X:X5X>X*X>X;X5X5X5X5X5X5X5X5X5X5X*X",
"=X>X*X5X*X5X5X5X5X>X5X5X5X5X5X5X5X5X5X*X>X5X5X*X>X*X>X*X5X5X5X5X5X5X5X5X5X5X5X5X5X5X5X5X5X>X&X5X*X5X5X>X5X5X5X5X5X5X5X5X5X5X5X5X",
"2X@X2X@X2X@X2X@X>X5X5X5X5X5X&X:X5X>X&X2X@X2X@X2X*X2X@X>X0X2X&X:X5X5X5X5X5X5X5X5X5X*X2X@X2X@X2X@X2X&X2X@X:X0X2X&X5X*X5X5X5X5X*X2X",
"@X2X@X2X@X2X@X2X*X>X5X5X5X5X2X*X>X0X6X*X6X@X2X@X2X@X6X@X2X0X2X*X>X5X5X5X5X5X5X5X@X2X@X2X@X2X@X2X@X6X@X6X0X2X@X2X*X2X5X5X5X5X5X@X",
"6X@X2X@X6X*X2X@X2X*X5X5X5X5X0X>X0X6X0X2X@X2X@X2X@X2X@X2X@X2X@X>X0X:X5X5X5X*X5X=X>X@X2X@X2X@X2X@X6X@X2X@X2X@X2X*X2X*X5X5X5X5X&X6X",
"@X2X@X:X&X5X5X5X*X5X5X5X5X5X>X*X:X&X>X*X2X@X2X*X2X@X>X@X2X*X>X5X>X;X5X5X5X5X*X2X5X>X@X2X@X>X@X2X@X2X@X2X*X>X*X>X&X5X5X5X5X5X:X;X",
"5X5X5X5X5X5X5X5X5X5X5X5X5X5X5X5X5X5X5X5X*X>X*X>X5X5X*X>X5X5X5X5X5X5X&X5X5X5X5X5X5X5X5X5X5X5X5X5X5X5X5X5X5X5X5X5X5X5X5X5X5X5X5X5X",
"2X@X2X@X2X*X5X5X5X5X5X5X5X5X5X>X5X>X*X2X*X>X0X2X0X6X&X2X*X5X5X5X5X5X5X5X5X5X5X5X5X5X5X@X2X@X2X@X2X*X>X@X>X5X:X;X:X5X5X5X*X5X5X2X"
};
