/* XPM */
static char *fafe8d39b1c74319c5c38b1b09a5f11aP4yK2OK1BVuRrhjb[] = {
/* columns rows colors chars-per-pixel */
"64 64 254 2 ",
"   c #050102",
".  c #0B0303",
"X  c #0D0907",
"o  c #0D0A0A",
"O  c #090808",
"+  c #130404",
"@  c #1A0405",
"#  c #140907",
"$  c #1B0A06",
"%  c #140C09",
"&  c #1B0D0A",
"*  c #160709",
"=  c #0E110B",
"-  c #1C120C",
";  c #15110C",
":  c #1A1614",
">  c #230405",
",  c #2B0405",
"<  c #230B05",
"1  c #2B0A07",
"2  c #230D0A",
"3  c #2B0C0A",
"4  c #250708",
"5  c #3A0905",
"6  c #340B0A",
"7  c #3C0C0A",
"8  c #360606",
"9  c #24130C",
"0  c #2B140C",
"q  c #2C1A0E",
"w  c #27160A",
"e  c #33140C",
"r  c #331C0E",
"t  c #3C1C0D",
"y  c #39170A",
"u  c #281B15",
"i  c #331E10",
"p  c #3A1C11",
"a  c #361916",
"s  c #3B230E",
"d  c #38220D",
"f  c #362211",
"g  c #3C2411",
"h  c #3B2916",
"j  c #2A2B19",
"k  c #2B2626",
"l  c #362A28",
"z  c #37342B",
"x  c #3A3635",
"c  c #232519",
"v  c #430D0A",
"b  c #4B0C0A",
"n  c #460905",
"m  c #520D0B",
"M  c #5C0D0B",
"N  c #550805",
"B  c #44150A",
"V  c #4B140B",
"C  c #441A0B",
"Z  c #4C1B0A",
"A  c #461806",
"S  c #53130B",
"D  c #541C0B",
"F  c #5A180C",
"G  c #471912",
"H  c #591713",
"J  c #5E0F11",
"K  c #660C0A",
"L  c #68170D",
"P  c #79150E",
"I  c #641212",
"U  c #6A1714",
"Y  c #731313",
"T  c #7B1312",
"R  c #781917",
"E  c #760D0F",
"W  c #43240D",
"Q  c #452A0F",
"!  c #4B280E",
"~  c #5B230C",
"^  c #432512",
"/  c #472A14",
"(  c #592514",
")  c #493319",
"_  c #553417",
"`  c #67250C",
"'  c #77280C",
"]  c #662712",
"[  c #782914",
"{  c #763213",
"}  c #582929",
"|  c #493729",
" . c #563A26",
".. c #433B3A",
"X. c #4F2F2D",
"o. c #70322E",
"O. c #7A1A21",
"+. c #3B4538",
"@. c #5C411D",
"#. c #49443B",
"$. c #57442E",
"%. c #624939",
"&. c #6C5131",
"*. c #6F5022",
"=. c #503C43",
"-. c #4A4545",
";. c #544A4A",
":. c #595454",
">. c #51514E",
",. c #655759",
"<. c #6A544A",
"1. c #596752",
"2. c #786A57",
"3. c #70654F",
"4. c #6E5B67",
"5. c #58676A",
"6. c #6B6765",
"7. c #776976",
"8. c #73716F",
"9. c #5C5561",
"0. c #871716",
"q. c #941617",
"w. c #8A1410",
"e. c #87280C",
"r. c #972B0C",
"t. c #89360C",
"y. c #97350B",
"u. c #862816",
"i. c #943014",
"p. c #A6360D",
"a. c #AC2F0E",
"s. c #88362C",
"d. c #954711",
"f. c #A8440C",
"g. c #B9460C",
"h. c #B84F12",
"j. c #91472A",
"k. c #A94F35",
"l. c #B4693A",
"z. c #A3651E",
"x. c #C5470B",
"c. c #C9540B",
"v. c #D9580B",
"b. c #C95518",
"n. c #D35011",
"m. c #E4580C",
"M. c #E25F11",
"N. c #DB620B",
"B. c #C9620C",
"V. c #EC680B",
"C. c #F6780A",
"Z. c #F66D0C",
"A. c #C75528",
"S. c #CE7334",
"D. c #855253",
"F. c #AB5C46",
"G. c #8D7252",
"H. c #B06F51",
"J. c #847976",
"K. c #897469",
"L. c #B47866",
"P. c #CB7650",
"I. c #D47357",
"U. c #C23B0C",
"Y. c #788474",
"T. c #FB850A",
"R. c #FF920B",
"E. c #B88756",
"W. c #898476",
"Q. c #978B78",
"!. c #91886F",
"~. c #B7987B",
"^. c #B38B72",
"/. c #ABA07F",
"(. c #D9996A",
"). c #C98E71",
"_. c #D8985E",
"`. c #7A7688",
"'. c #77768B",
"]. c #857A89",
"[. c #7B8B92",
"{. c #798FA8",
"}. c #87838A",
"|. c #9C948A",
" X c #8B889A",
".X c #999798",
"XX c #929091",
"oX c #A69A8A",
"OX c #A89C99",
"+X c #B0958C",
"@X c #A9A39B",
"#X c #B4A796",
"$X c #B8AF98",
"%X c #8994A8",
"&X c #9898A6",
"*X c #8F94AC",
"=X c #A49DA8",
"-X c #A19EB2",
";X c #98A6B7",
":X c #94A7B2",
">X c #A9A7A7",
",X c #B3A9A7",
"<X c #B9B5A8",
"1X c #A7ABB7",
"2X c #ABB4BA",
"3X c #B8B7B7",
"4X c #ACB1A9",
"5X c #9AA59D",
"6X c #CE9B8B",
"7X c #C7A898",
"8X c #D8B79A",
"9X c #D3AC8C",
"0X c #D8B7A6",
"qX c #C3BAB6",
"wX c #CFB8AC",
"eX c #E8B9A7",
"rX c #E3AD90",
"tX c #BDC1BD",
"yX c #CAC5BA",
"uX c #D6C9BB",
"iX c #D5C3AB",
"pX c #E8C8B9",
"aX c #ECD0B4",
"sX c #9AACC6",
"dX c #A7B6C6",
"fX c #B6BAC5",
"gX c #B8BAD3",
"hX c #A7B0D0",
"jX c #C3BEC3",
"kX c #BCC1C9",
"lX c #B7C3D7",
"zX c #B8CBEA",
"xX c #C6C7C8",
"cX c #D6CBC7",
"vX c #D6D3CA",
"bX c #CACCD5",
"nX c #D7D8D7",
"mX c #CCD3D1",
"MX c #E7D6C8",
"NX c #E6DBD7",
"BX c #EFD6CE",
"VX c #DBE2DB",
"CX c #E8E5DB",
"ZX c #F6EADA",
"AX c #FEF1DC",
"SX c #D6DBE4",
"DX c #C2D2E7",
"FX c #DBE3E7",
"GX c #E8EBE7",
"HX c #F4ECE4",
"JX c #FBF2E3",
"KX c #FBF4EB",
"LX c #FDFDF9",
"PX c #EDF2E9",
/* pixels */
"    + + + @ + @ > > 4 @ @ @ + . . .           .                             .       . . + @ @ , , 8 b N n n 8 8 5 , > > +     . ",
"      . . @ , 4 @ > 8 > 8 4 > + + . +     .   .         .                     .     . + @ @ 1 7 b 5 n N n b b m 8 , > > + . . . ",
"      . + @ 4 7 4 > > b b v 8 , * *   . + . . . .   . . . . .                 . + + @ @ @ , 8 n M K M m N m K m 8 5 n , @ . . . ",
". . . @ 1 1 * 6 v 1 6 I J m v 7 3 + a J.u * @ $ * * * . . . + . . .   . . . . @ * 4 1 4./ , 8 v b J U R M K K n b J n , > @ @ . ",
".     @ 1 v 6 4 3 v 7 J I J V 7 , <.>X].X.> @ @ @           +     +     . +   . * @ X.gXjXK.b b M J U I m I m b K M m n , > @ . ",
". . + @ > 1 v v 3 4 a J Y I M } OXjX7.].J.4.7.4.7.8.8.6.-.6...8.l . ..4.$ & 8.;.> 4.=XjX=XbX3Xs.T T q.O.J m b J J M M n 8 > @ + ",
". . @ > 1 6 3 6 6 * v O.Y J o.,XnX3XmX3XbXbX2X.XcXnX3X>XxXFX|.GX;.+ |.KXa l LXqX|.GXnXcX..,XnX=XD.q.q.q.I v m b K K M 8 , @ @ @ ",
". . @ @ 1 b m m m v 7 O.O.K D.nXmXCXVXqXSXfX3X;.,XmX..4XnXmX|.nX-.@ }.GXk a nXnXvXnX4.,.a |.SXmXD.E 0.0.0.J J E E K n , , , > @ ",
"  . + @ @ > 1 B b v 7 O.T s.jX=X,.nXnXyXGXnX3Xx nXmXW.FX4XnXoXCXcX3X<XPXxX>XGXnX|.GXvXVXcXOXVXOXjXs.q.q.I K E M n n n n n 8 4 * ",
"+ . @ 1 7 v 7 6 7 v J Y O.jXjX=.8.LXxX>XxXmXfXl &X>X3X4X6.xX].fXxXfX>XtXxX<XkX1X4.GXFX3X].J.LX=X-XjXq.q.E N n n N M M m 8 8 > * ",
". + @ 3 v b n b J O.O.U qXjXK.=.2XgX;X*X2X-X-Xx ,. X*X X:.1X7.*X=X&X}.=X&X}.*X`.XXDX=X6.X.].SXSX].jX,Xw.q.0.E M M N n 7 n 8 @ + ",
"+ . + @ > 1 6 6 H J I qXSX`.4.=.].*X*X'.;XsX1X9.o.'.'.%X-.;X7. X-X X X-X&X'.*X7.hXdX7.,.9.hXsXhX].].bX|.E T T E K K N b 8 , > + ",
"  . @ 4 1 e 5 G a B #XVXXX].4.=.:.*X%X'.'.].].4.H 9.9.'.X.`.,.`.'.7.7.`.7.4.7.o.%X[.;./  XhXhX'.].].hXSXK.K K m n n n , , @ @ + ",
". + . + @ $ w e > |.CXxXjXxX'.9.G `.%X=.G J J J m G b m J M K K E E E K E E Y E Y I M N =.sX%X} sXbXjXjXSX2.n 5 8 , > , > @ + . ",
". . . # + # - + W.CXvXkXfXdXsXX.7 X.X.7 G 7 G V b J J J Y Y T 0.q.q.0.0.q.q.q.w.w.P P L N } H o.zXgXbXGXGXnXo., 7 , > > @ @ . . ",
". . . # # & @ J.CXmXfX2X2XsXhX].b I I J J H m H J I I E Y w.q.0.0.Y T 0.q.q.q.q.q.0.0.R E K L -XzXgXgXgXSXPXmX} , 6 , , > > @ @ ",
". + # $ 2 @ K.GXlXkXdX2XsX;X].o.K U Y R Y E E T w.E E T w.w.K S S S S M P q.q.q.q.q.q.0.w.P P o.-XzXjXgXgXzXFXjXG 5 7 8 7 1 , @ ",
". . + < @ K.GXxXkX;X:X2X:X>.7 M H H H H U Y w.T P P T L J B v B B V V n S K L P L U u.w.0.0.0.K E ].zXzXgXgXhXSX3Xm b v 8 8 > @ ",
". . +   1.VX2X:X{.:X;X'.f < 3 y y 7 p C B D S S S S A A C B y B A B A A A A A D S F S S F [ L P Y K s.gXzXlXhXsXDXOXb 7 1 > @ . ",
"      + ..{.dX:XsX{.-.@ < 9 < w e 0 3 y y y C y y y A A C A A B A V D A A A D ! ( Z A V Z Z V D S H n m ].zXzXhXsXDX4.> 1 @ @ + ",
"  .   * + % 5.%X5.: @ $ 9 < 9 3 0 y y y G C C ! Z A W A ! Z A ~ D Z ~ D ~ ~ ~ ~ ( W Z Z ~ A A Z B B 7 5 8 <.hXzXhX4.a 1 > > > + ",
". . . & 9 < + j < @ 0 2 0 e e y C V D D ] ] ` ` ` ` ~ ` ` ~ ~ ` L ` ` ` ` ` ` ' ~ ` ~ ` ~ ~ ~ Z Z V A A C 8 / ].=., 8 a 1 , > @ ",
"+ # 2 0 e 0 0 3 e 0 y e t B Z A ( L L L L R u.e.' ' ' ' ' ` ` ' t.' ' ' ' { { ' { ' ' { ` ` ` L ~ ~ F S H H S n V G v v 7 8 , > ",
"< 3 y G B B B Z C y C V Z D D ~ L ` ' [ r.r.i.p.p.p.y.p.y.y.t.t.y.t.y.y.t.d.d.t.t.e.t.t.e.' e.' ' L ` L L ] L U I J S S S v 5 7 ",
"3 y G D V S S D D V D F ` ' L P ' ' e.e.i.r.a.a.a.g.g.x.g.x.g.g.g.h.h.h.h.h.f.f.p.f.d.p.p.p.p.p.r.q.e.e.u.u.e.0.R R L K I J N m ",
"e C H G V V V D D D L P P e.e.e.r.r.r.e.t.y.y.p.g.g.x.c.n.v.v.N.N.N.N.N.N.c.B.g.g.g.g.a.g.a.a.a.a.a.a.q.r.r.w.0.0.u.w.T Y Y K M ",
"i G ^ V V B V D D ` ` L ` ' ' r.y.y.r.a.a.x.U.m.m.m.V.Z.Z.C.C.T.T.T.C.T.C.V.V.m.m.v.n.n.x.x.a.p.a.a.a.r.r.i.r.0.u.u.R E T R U L ",
"i p C B B Z Z D D F D ~ ( ` ' ' e.t.t.t.d.p.g.x.n.m.V.Z.C.T.R.R.R.R.T.T.C.Z.V.V.N.c.h.h.f.f.g.f.f.y.r.u.i.i.u.r.s.u.u.R U U ] I ",
"e y t B C B W ! A y C y ! ( R ( Z ] i.[ { p.h.h.x.x.b.v.V.V.C.Z.C.T.C.N.m.v.c.c.c.c.h.d.f.t.' i.t.t.' ] ] { { [ [ s.[ [ ' L H ( ",
"0 i B V y C d y o.{ C V ^ { A.j.{ j.A.A.A.A.A.b.A.b.b.B.c.z.B.b.v.B.h.B.c.b.b.c.b.A.A.b.A.h.d.f.A.] ` { u.o.` ( ` o.] ] ` [ ] F ",
"w G j.j.( a } o.F.k.F.P.F.H.I.I._.P.I._.(.H.P.P.H.E.S.S.d.z.C.T.S.N.d.z.P.S.S.S.S.l.S.P.l.P.P.P.P.l.l.F.A.j.( H ( j.F.O.D ] ] ( ",
"^ _ F.P._ &.I.L.H.H.^.).^.^.).E.).rX^.6XrX).).9X(._._.d.*._._.(.(._.l.*.l.E.(.(.).E.(.E.H.(.).E.).I.).).L.L.H.F.F.H.P.s.( ( D D ",
"H.L.G.H.G.^.6X).~.+X+X+XrXrX8XQ.7XeX7X7X8XrXeX8X/.E.z.@.E.8X(.9X9X(.(.&.*.E.~.(.rXrX9X~.E.rX6X^.).(.6X).).^.G.L.L.L.L.L.L.F.F.F.",
"+X~.Q.@XOX+X8XaXpXpX#XOXpXcXcX|.qXwXwX0XpXiX8XiX/.!.j !.iXaXMXaXaXaX8X9X@.*.E.$XiX8XiX8X9X8X8X~.7XaXeX7X+X6X+X+X^.L.+X+XL.6X6X).",
"#XoX.X>X,X>XcXBXBXBX-X=XcXbXcX>X1X3X3XcXMXaX$X/.3.@.&.$X$XiXAXAXAXaX$XaXG._ *.!./.iXBXaX8XiXwX#XiXpXpX7XoX0XeX0X0X+X+X+X6X].7X6X",
"@X<X,X.X=X1XvXCXNXHXfX-XNXNX<XxXjXjXcXyXyXwX!.2.Q @.yXyX$XaXJXAXAXZX$X$XiXY.d 3.G.$XaXiXvXvXcXiXMXMXMX7XoXwXMXeXeX=XXXOX+X=X=X=X",
"5XY.1.1.+.5.mXCXGXHXfX&X3XbX1X5XjXjXNXqX/.Y.h d @.3.iX<X@XuXKXAXAXZX<X$XaX/.Q s s &./.$XCXZXMXiXcXcXyX#XW.cXBXMXBXOX|.=X,XOXOXOX",
"1.j j j +.[.xXVXnXcXbXfXkXlXkXdX1X3XvX>X!.1.j d #XCXvXyXyXCXAXJXAXAXuXuXuXvX<X@.d $.!.oXNXCXCXxXcXuXqXqXqXMXNXMXNXqXOX=X=X+X,X,X",
"j = c = 1.;XfXmXyXqXbXSXFXFXPXmX5X@X>X3.$.@.h h uXJXAXPXJXJXJXJXPXAXJXJXJXKXZX@.d _ _ &.<X#X$XyXKXKXJXHXZXZXNXNXMXjXcXcXcXjX3X=X",
"= = = = 5.:X2XbXDXbX3XbXSXSXCXmXXXW.Y.| d d s h iXPXPXJXHXHXHXJXJXJXZXPXZXKXCX*.! ! s ) !.!.Q.3XHXHXHXHXCXNXNXNXNXqXqXnXbXbX,XOX",
"= = = = 5.dX:XlXzXlX4XtXVXVXGXnXXXY.3.j d d h s uXLXLXLXLXKXHXHXCXPXKXKXLXMXJX%.s ! Q ! &.*.G.tXHXKXKXHXGXNXNXnXFXqXqXSXbXnX3X|.",
"= = O = >.5.[.;XdXlX[.[.5X2X4X|.1.$.j w q d d s K.|.oXoX|.uXKXHXvXiX@X$X7XQ.$X@.Q Q W s Q t W |.GXvXcXcXxXxXcXnXwXOX=X3X3XjX>XJ.",
"= = = O =   1.:XdXzX[.z +.>.6.1.q w w q d q d h r 1 < < & !.HXvXCXoX$ w w s Q ! ! ! Q s y r r G.|.J.3...3.jXqX<XbX<.1 e l 2.K.J.",
"= c O = = O 1.{.{.:X[.+.z z #.$.q w q q d d s s s h f q z Q.yX$XvX#Xw d d g ! ! ! ! ! ! W s r <.2.W.3. .6.>X3X3XxX%.1 3 / <.2.2.",
"O X X O O   >.[.8.{.Y.+.q u q j q w q q d f h s s d s f - 3.#XoX<X!.r d d Q Q _ _ ! ! ! W s y  .%.<.$.| 8.!.oX3X>XX.e e G <.%.<.",
"O o o . X   +.5.5.Y.Y.+.; ; ; w u w f q q f s h s f g Q w &.!.W.!.2.f f Q Q ! ! ! ! Q ! W t p ! ) ) ^ z 8.W.|.W.!. .3 e a  . .%.",
". O X . O . z >.>.1.1.+.o ; ; w q q f w q h d d q d g g d @.3.&.3.;.d / Q Q Q / Q Q Q ! ^ C W ! p i e | 3.K.Q.2.K.X.6 p e e y 0 ",
". X o X X o c j z h #.j # & - u w q q q f d h h d h g f q h  .g h ) d Q g Q ^ Q Q s ^ Q W W W / p a 3 / <.G.<.%.3.g e a 0 3 3 $ ",
"o o % ; X ; - : : q h j - - q q q q q f f f Q h f h / f i f q w q g d s s Q g W Q ^ / Q ^ W s C p g 0 p )  .} i ^ e a e 0 0 4 2 ",
"% % ; - - # ; ; - ; - w 9 w u q q f f f f q d h f f g h f q i 9 9 q Q Q g g g g g i y ^ W t t W t y e e 0 e 3 2 2 e 0 3 e 0 2 2 ",
"% % % % ; # # o ; # ; - w c - w w q q i f i q g d q f g q q q w 9 9 Q f h ^ / t r p p i e q r s y e e e q 3 $ $ * 2 2 3 2 @ @ @ ",
"% # % % # o o o ; = - ; w w - c q u q 9 q q u f h f d g q w - $ & 2 q r h g s g f i e p i 0 0 r r e 0 0 e 0 $ * * . * $ & 2 2 @ ",
"& % % % % %   O o X ; - - w - q 9 u r q w w 0 f d q q r r 9 % 9 & - i q f r s r r i r 0 0 e 0 0 p r i 0 0 2 $ * +   . * @ $ * @ ",
"; * * * . o X % # # ; & - & - - 0 0 w 0 u i q 0 q r 0 0 w $ # X % * 0 i q f W q r t 0 w 0 e 0 3 w 9 3 2 2 2 2 * * . . . + . * 4 ",
"% X . O   % % . o & # & & & - - 9 % 0 - 2 9 w 0 w r w q q 9 + X . # - 0 f r 0 q 2 f 0 e 0 0 < & 2 $ $ @ $ $ 2 @ + . + * . . . * ",
".   . O O . ; % X ; ; # - ; + ; 9 9 - 9 & & % 9 & w w 0 q & X # . $ # & q < $ & $ 2 & 9 0 w & + + * $ 2 $ * + * +   . . . . . . ",
"O     O O   X = X X X # ; o # # & & % * - q % % $ % - 0 # X . O   o # % % $ $ . + & $ & w @ & $ + . + * * . + .   + *       *   ",
"  O   .   .     # X o # # # ; # $ : - X - % % * X # 9 % % * o   % X . . # # + X $ % & & + # $ # # % . * . o   * # + + .   . $   ",
"O   O     O O X ; o # X X ; # # * * o - ; . % * X X - X . # O   .   . * + # X # $ % + @ % + $ . % . . * . . . . #   + .       . ",
". O     . X     X   X X . X + ; * ; * : $ : ; % 9 - # X * :   O % o . - - . . + & < % w + & & $ * * % * . . + .   + 2 X . . .   ",
"  O   . o   x :.  z :.  6.; #.>.-.x 6.-.;.:...;.-.:.k c :.-.-.:.>.k : :.x :.z . k ;.;.;.:.-...,.>.-.l :.:.=.>.;.k . * + % * X . ",
"  O   .     -.6.x 9.>.-.6.:.-...:.: ..: :.>.k 6.-.,.z ..k   :.8.-.c u 6.x 6.:.  z ].;.#.6.,...8.,.x % l x c >.-.-.  . . . .     ",
"  O     O   k : 9.: x -.k -.-.x >.: k = x >.x x % k k : :.-.-.x O   : x % X -...-.x u   u x . : :...: : k : -.-.=.  .   . .     ",
"          O                   = O         % % . . .     O o         .   . .   % .     .   .   . O % O       o O         .       "
};
