/* XPM */
static char *_59aa71297ec4829ca595af233a57881CedFwHwl6gj3zTaM[] = {
/* columns rows colors chars-per-pixel */
"64 64 193 2 ",
"   c #342E2F",
".  c #382F30",
"X  c #343334",
"o  c #3B3233",
"O  c #373738",
"+  c #393738",
"@  c #373839",
"#  c #3C3B3C",
"$  c #433434",
"%  c #4A3535",
"&  c #4D3939",
"*  c #483A3A",
"=  c #543535",
"-  c #543A3A",
";  c #5C3E3D",
":  c #5A3736",
">  c #613F3E",
",  c #663838",
"<  c #62403F",
"1  c #71403F",
"2  c #3F3F40",
"3  c #413F40",
"4  c #3F4142",
"5  c #434243",
"6  c #474748",
"7  c #4B4A4B",
"8  c #474849",
"9  c #5C4140",
"0  c #5B4B4B",
"q  c #514F50",
"w  c #545354",
"e  c #5B5B5C",
"r  c #585758",
"t  c #644342",
"y  c #6C4747",
"u  c #6D4A49",
"i  c #724E4D",
"p  c #7C4846",
"a  c #785857",
"s  c #685D5D",
"d  c #646465",
"f  c #6B6B6C",
"g  c #686769",
"h  c #716262",
"j  c #787778",
"k  c #7C7C7D",
"l  c #747475",
"z  c #83413F",
"x  c #854E4C",
"c  c #825C5C",
"v  c #865756",
"b  c #945452",
"n  c #965A58",
"m  c #94504E",
"M  c #A25C5A",
"N  c #88605F",
"B  c #9E605E",
"V  c #A6605D",
"C  c #8C6362",
"Z  c #876B6B",
"A  c #976967",
"S  c #8E706F",
"D  c #9A706F",
"F  c #847979",
"G  c #9F7372",
"H  c #967675",
"J  c #A46B69",
"K  c #A8706E",
"L  c #A47B7A",
"P  c #AA7E7D",
"I  c #A57775",
"U  c #B37A79",
"Y  c #B06764",
"T  c #C97F7C",
"R  c #AA807F",
"E  c #7E7F81",
"W  c #807F80",
"Q  c #7F8081",
"!  c #818283",
"~  c #878889",
"^  c #8C8C8D",
"/  c #9E8181",
"(  c #8E8F90",
")  c #908F90",
"_  c #8E9091",
"`  c #939394",
"'  c #969799",
"]  c #979A9B",
"[  c #9B9B9C",
"{  c #9B9596",
"}  c #A18484",
"|  c #AC8C8B",
" . c #AD8483",
".. c #B38786",
"X. c #B58D8B",
"o. c #BC8F8E",
"O. c #A89696",
"+. c #BB9392",
"@. c #BA9B9B",
"#. c #B69797",
"$. c #9D9FA0",
"%. c #9FA0A2",
"&. c #A2A2A3",
"*. c #A4A7A8",
"=. c #ABABAC",
"-. c #A8A4A5",
";. c #BBA5A5",
":. c #B7A9A9",
">. c #ADAEB0",
",. c #B0AFB0",
"<. c #AEB0B2",
"1. c #B3B4B5",
"2. c #B9B3B4",
"3. c #BBBCBD",
"4. c #B6B7B9",
"5. c #C39493",
"6. c #C59997",
"7. c #DA9E9C",
"8. c #C9A19F",
"9. c #C4ABAB",
"0. c #CAADAD",
"q. c #C7A5A3",
"w. c #D2ACAB",
"e. c #DAA8A6",
"r. c #CCB3B3",
"t. c #C7BCBD",
"y. c #D6B3B2",
"u. c #DAB5B4",
"i. c #DDBBBA",
"p. c #D7B8B7",
"a. c #CFB0AF",
"s. c #E4B9B7",
"d. c #DFC0BE",
"f. c #BDBFC1",
"g. c #C1BEC0",
"h. c #BFC1C2",
"j. c #C3C4C5",
"k. c #CBC4C5",
"l. c #C5C7C8",
"z. c #C7C9CB",
"x. c #CACBCC",
"c. c #D3C4C4",
"v. c #D9C8C7",
"b. c #CECFD0",
"n. c #CFD0D2",
"m. c #D3D4D4",
"M. c #DAD5D5",
"N. c #D6D7D8",
"B. c #DBDCDC",
"V. c #D7D8DA",
"C. c #E3C5C3",
"Z. c #EACCCB",
"A. c #E7CBCA",
"S. c #EED0CF",
"D. c #ECD4D3",
"F. c #EEDBDA",
"G. c #E5DBDB",
"H. c #F1D9D8",
"J. c #F5E0DF",
"K. c #DDDFE0",
"L. c #DFE0E1",
"P. c #E4E4E4",
"I. c #EDE3E3",
"U. c #EEEEEE",
"Y. c #EFEFEF",
"T. c #EEEFEF",
"R. c #EDEDED",
"E. c #EDEDED",
"W. c #E7E8E8",
"Q. c #F3E4E3",
"!. c #F4EDED",
"~. c #F9ECEB",
"^. c #EFEFF0",
"/. c #EFF0F0",
"(. c gray94",
"). c #F1F1F1",
"_. c gray95",
"`. c #F3F3F3",
"'. c #F2F1F1",
"]. c #F4F4F4",
"[. c gray96",
"{. c #F5F5F4",
"}. c #F6F6F6",
"|. c gray97",
" X c #F5F6F6",
".X c #F3F3F3",
"XX c #F6F8F8",
"oX c #F8F8F8",
"OX c #F9F9F9",
"+X c #F8F9F9",
"@X c #FBFBFB",
"#X c #F9F9F9",
"$X c #FAF3F2",
/* pixels */
"@XR.OXR.OXR.]._.]._.]._._.]._.].R.OXR.OXR.OXR.OXR.OXR.OXR.OXR.]._.]._._.]._.]._.].(.oXR.oXR.OXR.oXR.oXR.oXR.oX!.XX^.]._._.]._.XX",
"]._._._._._.]._._._..X_._._._.]._.]._..X_._._.]._._._._._.]._.]._._._._._._._._.]._.]._._._.]._.]._._._..X_._._._._.`._._.`._._.",
"W.OXR.OXR.OXR.]._._._._._._.]._.]./.XX/.XXR.OXR.OXR.OXR.OXR.]./.]._.]._._.]._.].(.].R.oXR.oXR.oXR.oXR.oXR.oX(.]./.]._.`._._.].R.",
"OX_.].R.oX_.]._.]._._._._._._.]./.XX!.].R.OXR.].R.]._.].R.]._.]._.]._._._._._._.].(.oXR.oXR.oXR.oXR.oXR.oX_.].(.]._._._._._._.oX",
"]..X]._._._._._._._.]._._._._._.].]._.]._._._._.{._._._._..X`.]._._._.]._._.]._.]._._._.`._.]._.]._.]._._._.]._._._.`._._._._.].",
"W.OXR.XXR.XX_.]._.]._._._._.]._.]./.XXR.OXR.OXR.OXR.oXR.oXR.]./.]._.]._._.]._.].(.].R.oXR.oXR.oXR.oXR.oXR.oX(.].(.]._.`._._.].R.",
"OX!.XXR.]._.]._.]._.]._._.]._.].!.].(.].R.XXR.XXR.XXR.oX!.]./.]._.]._._._._.]._.].(.].(.oXR.XXR.oXR.oXR.].(.].(.]._.`._._.`._.].",
"]..X]._.]._.]._._._._._._._._._._.{._..X_.{._.]._.]._.]._.]._.`._._._.]._._._._.]._.].(.]._.`._.].(.]._.]._.].].`._.`._._.].`.].",
"W.OXR.OXR.XXR.]._._._._._._.]._.].R.XXR.OXR.OXR.OXR.OXR.oX(.XXY.]._.]._._.]._.].R.XXR.OXR.XXR.OXR.OXR.OXR.oXR.].(.]._._.`._.].R.",
"OX_.].R.]._.]._._._.]._._.]._._._.].(.].!.XXR.XXR.XXY.].!.].(.]._.]._._.`._.]._.]._.].(.XX!._.R.].(.].R.]._.].(.]._.`._._.`._.].",
"]._.]._.]._.]./._._._._._._._._._..X_.]./.]._.]._.].(.{./.].(.{._._._._._._._._.]._.]._.].P.x.R.]._.]._.]._.]._._._.]._._.]._.].",
"W.OXR.OXR.XX/.]._.]._._._._.]._.OXB.B.W.OXR.OXR.OXR.OXR.XXY.XXY.]._.]._._.`._.].R.oXR.oXW.j.=.OXR.OXR.oXR.oX(.].(.]._._.]._.].R.",
"OX!.]./.]._.].!.]._._._._._._.]._.P.=.n.P.]._.].R.]._.].(.].(.{._.]._.`.`._.]._.]._.].(.K.&.x.(.].(.]._.]._.].(.]._.]._._.]._.].",
"]._.]._.]._.]._.]._.]._._._._.]._.].l.<.x.V.P.]._.]._.].(.]..X{._._._.`.`._._._.]._.].P.z.' P._.]._.].(.]._.]._.]._._._._._._.].",
"W.OXR.OXR.OXR.]._.]._._._._.]._.]./.].<.f.l.x.B._.R.OXR.XXR.XXY._.(.]._._.]._.].R.oXW.N.f.$.R.OXR.OXR.OXR.oXR.].(.]._._.]._.].R.",
"OX_.]./.]._.]._._._._._._._._.]._.XX/.W.=.l.l.l.n.P.R.].Y.XXY. XW.W._.`.`._.`._.].(.B.z.=.1.oXR.].(.].(.]._.]._.]._._._._.]._.].",
"]._.XX_.]._.]._.{._._._._._._.]._.]._.XXx.1.z.z.x.l.n.W.Y..X/.].R.m.W..X.X_.{.(. XP.x.x.[ m.XXY.oXR.]._.]._.]._.]._._._._._._.].",
"W.OXR.XXR.].Y.].(.]._._._._.].(.].R.XXR.XX1.3.z.x.x.x.x.V.P.XXY.XXB.B._._.{.(.XXW.n.l.j.[ '.R.OXR.OXR.OXR.].^.]._.]._.]._._.].R.",
"]._.]./.].R.]._.{._..X_._..X_.]._.]._.]._.W.=.l.*.%.j.x.x.x.V.Y._.W.x.W..X_..XY.V.x.x.1.=.'.}.Y.]._.]._.]._._._.]._._._._.]..X].",
"OX_.].!.]._.]._.{.(..X_._..X_..X_.].!.].R.XXb.1.1.^ j [ h.x.x.n.B.Y.n.n.R._..XP.l.j.x.%.z.'.}.Y.].R.oXR.]._.]._.]._._._._.]._.].",
"W.OXR.].R.OXR.XX(.{._.oX]./.OX_.]._.OX_.@XR.@X3.h.W.B.$.k ^ 4.l.x.m.m.z.K.XXW.l.Q <.x.' B.@XY.@XR.OX_.OX_.].R.XX_.]._..X]._.].R.",
"]._.]._.]._.]._..X_.P.1.l.G.1.j..XW.1.=.1.M.1.&.Q %.z.1.' f w k *.' ' j.3.=.-.j Q ' ` $.{.W.$.&.W._.3.>.k._.]._._._._._._._._.].",
"OX(.]._.oXR.]._.{.{.x.4 a :.@ a Q.m.5 X $ L 5 X X o c { f o 9 ;.! # $ @.%.O - #.1.+ - r.XX_ o $ y.W.e   a F.XX_.]._._._._.]._.].",
"W.OXR.OXR.OXR.].(.oXj.+ t O.@ u H.x.5 X $ D 3 X X X p ' g   ; v.m.6 $ C ~ @ < S.=.+ < S.N.7 X $ q.!.r X u Q./.]._.]._..X]._.].R.",
"]._.]._.]._.]._._.].3.+ 9 } O 9 D.m.5 o = I t o X % x :.e X & d.x.5 $ P ^ + > A.*.O < S.1.X $ , e.B.7 X t D.]._._._.]._._.]._.].",
"@X!.XXR.].R.oX_.].].1.X - S O ; Z.N.5 < 7.D.d.q o J L &.q X % q.f.6 $ @.&.+ - | ] X < S.^ X z s.Q.m.6 X 9 C.XX_.]._._._._._._.].",
"W.OXR.XXR.OX_.].!.oX=.X * c X - C.x.# i Q././.e . L %.1.8 o $  .-.5 $ +.$.O > 9.' X < Z.g . U #XY.m.5 X & A._.].R.]._..X_._.].R.",
"]._..X_._._._._..X{.[ X $ y O & i.n.* u G. XB.w . R j.4.6 X o v d # $ +.%.X t d.[ + t i.w . 5.'.].j.# X % p.]._.]._._._._.]._.].",
"OX!.XXR.OXR.]._.].].) X o : X $ y.V.3 u D.{.d.4 o L b.=.3 $ o +.b.6 $ +.] X 3 u.' O t 0.8 $ e.(.@X1.# $ $ q.@X!.]._.]._._._._.].",
"R.XXR.OXR.OX_.]._.].^   + % X $ q.x.2 i J.x.f # o c 1.~ # % o ..B.7 $ +.^ X < y.' X t 0.5 % w.OXY.<.o % $ q..XoX_.]._._..X_.].Y.",
"]._.]._..X_.]._.]._.! X X + o o 6.m.3 9 2.) [ w o D { k # , . R M.7 $ +.E   > 0.~ X t ;.# - i.{.].&.o , o 5.]._._._.]._._.]._.].",
"OXR.XXR.XXR.]._.]._.l   X X X o 5.N.5 o & 9.P.r o o.4.{ o 1 o I M.6 $ +.j X > 9.d X t @.# - C./.@X` o 1 o ..@XR.]._.]._._.]._.].",
"W.OXR.].!.]._.].(.(.f   o X X . R x.5 X % y./.r . o.OX' . a * A M.7 $ X.E O > #.f O t @.2 & v.OX!.^ o x +  .!.].!.]._._.`._.].R.",
"{.].]..X]._._._..XR.d X X X + X P b.* o , i.P.w . +.].^ o n 3 c M.8 $ o.( O t } ( + < | # & s.]._.k $ C O G .X.X_.`._.`.`._.`._.",
"OXR.OXR.XXR.]._.oXP.e X + X o   I m.5 t 7.Q.m.q . 5.R.k . J 6 v v.8 $ +.&.+ ; W %.X t q.4 & d./.].l $ G # A $X/.]._.`._._.]._.].",
"W.OXR.XX/.]./.].'.P.w o $ o % X C d.4 u J..Xn.q o o.`.l X A 6 i c.8 $ +.&.+ , q.] X t p.8 $ u.OXP.d $ D # C I.XX_.]._._.]._.].^.",
"_.]._.]._.]._._..XB.7 % = X : X a c.3 u F./.l.q . 5.W.g X + o p :.6 $ +.W X ; 9.l X t s.q $ w.$XW.e X # X a Q.]._._._.]._._.]._.",
"@XR.OXR.OXR.]._.oXM.6 % > o , o a v.3 y D./.h.q . 5.P.e X X X 3 O.5 $ +.E X t H e O t g.d . 8.$XW.r X X X i Q./.]._.]._._.]._.].",
"R.].R.oXR.].Y.].{.b.5 - i + p X i r.4 u F.B.t.q . X.N.w . % o & a 2 $ G ! + = Z $.O t S.j   W @XN.7 o $ X y D.]._.]._._._._.]._.",
"_..X_.]._.{._._.{.j.# ; C % c O t 0.5 * h :.h.q o R j.7 $ A 5 & #.6 X * u + o h O.o t D.$.X 7 ^ ;.6 & J + t A.]._._._.]._._._._.",
"OXR.oXR.oX(.oXR.OX3.+ 9 S & A + 0 0.5 X o ..3.8 o L 3.6 $ D 5 % +.7 X $ C 2 X > ..# t Z.m.5 X $ R 5 - | # - Z._.]._.]._._.]._.].",
"R.OX_.].R.]._.].].2.@ t / ; L + - @.4 o o ..*.+ o v ^ 5 $ P 6 $ X.8 X $ v @   3 W % > S.R.j   o D + - +.4 & i.XX_.]._._.]._.]._.",
"_.]._..X_.]._.].].=.o p a.K w.A V y.G n b 6.$.C z U -.v m D c b o.D b b v n b M q.A Y H.`.m.a x 5.N V 0.8 $ y.XX_._._._.]._._._.",
"OXR.oXR.OXR.OXR.OX&.% T !.~.'.~.Q.XXQ.!.c.k.j.1.F L.P.:.t.-.F O.g.k.c.g.2.I.G.g.G.Q.~.!.XXR.F.Z.$XQ.~.W.` $ y./.]._.]._._.].R.OX",
"R.].^.XXR.]._.].].` b H.]._.`.(.]./.XXL.x.x.l.Q 3.(.oXm.<.B.P.[ W =.z.z.z.m.V.l.m.R.(.}.^.}.(.XX!.XXY.XXG.s 6.XX_.]._.]._._.].R.",
"_.]._.]._.]._.]./.#.e.oX`._.`._.]./.XXB.l.x.] ` _._.].(.3.j._._.b.( ~ 4.b.z.z.z.z.N.^.].(.].(.].Y.]._.]..X2.6.]._._._._.]._._._.",
"OXR.XXR.OXR.]._.].D.!.`._.]._.]._.].R.n.z.4.k P.(.OXR.OXP.=.B.oX`.^.f.W ( f.b.z.z.z.P.R.oXR.oXR.oXR.oXR.OXP.Z.R.]._.]._._.]._.OX",
"R.]./.].!.]._.]._._._.`.`._.]._.]._.T.b.j.E h./.].(.].(.XXn.f._.`.`.XXP.=.E $.j.z.z.m.R.(.XX(.].Y.XXY.]./.]._.]._._._.].]._.].R.",
"(.]._.]._.]._.]._.{._.]._._.]._.]./.W.x.' ' ]._.].(.]._.].Y.j.P.]._..X.X{.B.' E >.z.z.V.(.].(.].Y.].(.]._.].(.{._._._.]._._.]._.",
"@XR.OXR.OXR.].(.].R.]._._.]._.]./.XXm.<.k W.R.OXR.OXR.oXR.oXW._._.].!..X.X{.].x.( ~ 4.x.P.R.OXR.oXR.OXR.OXR.]._.]._.]._._.].R.OX",
"_.]._.]._.]._.]._._._._._._._._.].R.z.Q l..X]._.]./.]._.]._.]._.]._..X_..X.X_.].R.3.k ` j.R.(.]._.].(.].(.]._.{._._._._.{._.]._.",
"R.].Y.].R.]._.]._.]._.].]._._._.XXL.` O.XXY.XXR.XX!.XXR.XX/.]._..X_..X_._..X_._._.OXP.=.Q <.R.XX(.].(.XX_.].R.{._._._._._._.].R.",
"@XR.OXR.OXR.OXY.]._.]._._.]._.]._.x.! W.R.XXR.OXR.OXR.OXR.oXY.]./.]._..X_._.]._.].R.OX/.G.$.V./.oXR.oXR.oXR.oX(.]._.]._._.]._.OX",
"_.]._.]._.]._.]._.]._._._._._._.].1.x.{.]._.]./.].Y.]._.{._.]._._._._._._._._.]._.]._.]._..XW.].(.{._.]._.{._.]._.`._.`._._._._.",
"R.OXR.].R.]._.]._._._.]._._.]._.].B.].R.]._.].!.XXR.].(.].!.]./..X_..X_._.{._.]._.].R.].R.oX_.].R.oX(.].R.oX(.]._.`._.`._._._.R.",
"OXR.OXR.OXR.OXR.]._.]._._.]._.].Y.OXR.XXR.OXR.OXR.oXR.OXR.XXY.]._.]._..X_._.]._.].R.OXR.OXR.XXR.OXR.oXR.OXR.oXR.]._.]._._.]._.OX",
"_.]._.]._.]._.]._._._._.]._.]._._._.]._._._.]._.]._.]._._._..X_._._..X_._..X_..X_.]._.]._.]._.]._.]._.]._.]._.]._._._.`.`._.`._.",
"W.OXR.]._.].R.]._.]._.]._._._._.]._.]._.].R.XXR.XX!.].R.]._.]._.]._..X_._._._.]._.].R.].R.OXR.OXR.OXR.]._.]./.]._.]._.`.`._.].R.",
"@XR.OXR.].R.]._.]._.]._._.]._.]./.].R.XXR.OXR.OXR.XXR.OXR.OXR.oXY.]._..X_._.]._.]._.OXR.OXR.OXR.OXR.OXR.].R.]./.]._.]._._.]._.XX",
"_.]._.].].]._._._._._._.]._._._._._.].].]..X.X_.]._..X_..X_..X_._._._._._._._._._._._._._._._._._.]._.]._.]._.]._._._._..X_..X_.",
"R.oXR.oXR.]._.]._.]._._._._.]._.]./.].R.XX!.].R.]./.XXR.OXR.]._.]._.{._._._._.]._.].R.OXR.]._.].R.]._.].R.oX!.].(..X_..X.X_.].R.",
"OXR.OXR.OXR.]._.]._.]._._.]._.]._.].!.XXR.OXR.OXR.OXR.OXR.oX_.]._._._._..X_..X_.]._.OXR.OXR.OXR.OXR.OXR.oXR.]./.]._.]._._.]._.oX",
"_._._._._.]._._._._._._.].`._._.].].]._.]._._._._._..X_.]._._._._._..X_._..X_._._._._._._.]._._._._._.]..X.X_.]._..X_._..X_._._.",
"W.OXR.OXR.OXR.]._.]._.]._._.].R.].R.XXR.XXR.OXR.OXR.OXR.OXR.]._.]./.]._._.]._.]._.].R.OXR.OXR.OXR.OXR.OXR.OXR.].(.]._..X.X_.].R."
};
