/* XPM */
static char *result[] = {
/* columns rows colors chars-per-pixel */
"64 64 129 2 ",
"   c #0B0203",
".  c #0F0608",
"X  c #120807",
"o  c #10070B",
"O  c #140C0C",
"+  c #18100E",
"@  c #150E12",
"#  c #180F10",
"$  c #1C1314",
"%  c #1E1619",
"&  c #1F191B",
"*  c #21161A",
"=  c #241A1C",
"-  c #281E1E",
";  c #251F21",
":  c #281F21",
">  c #272122",
",  c #2B2324",
"<  c #2F2629",
"1  c #2F282A",
"2  c #302727",
"3  c #332B2D",
"4  c #382E2F",
"5  c #352D31",
"6  c #382F31",
"7  c #373133",
"8  c #3A3335",
"9  c #3E363A",
"0  c #3F3839",
"q  c #423B3D",
"w  c #443D42",
"e  c #474146",
"r  c #4A4245",
"t  c #474148",
"y  c #4C454A",
"u  c #4F484C",
"i  c #514A4E",
"p  c #544D52",
"a  c #575057",
"s  c #595356",
"d  c #5B555A",
"f  c #5F5A5D",
"g  c #61595D",
"h  c #5F5B62",
"j  c #635D63",
"k  c #666265",
"l  c #686065",
"z  c #676269",
"x  c #6A646B",
"c  c #6E696E",
"v  c #716A6F",
"b  c #6C6770",
"n  c #6F6870",
"m  c #736D73",
"M  c #746F78",
"N  c #757076",
"B  c #797476",
"V  c #767179",
"C  c #7B757C",
"Z  c #7F797F",
"A  c #7F7A81",
"S  c #837E83",
"D  c #858086",
"F  c #888387",
"G  c #86828A",
"H  c #8A858C",
"J  c #8C898E",
"K  c #90878E",
"L  c #8C8490",
"P  c #8F8B94",
"I  c #928D94",
"U  c #968F9B",
"Y  c #939197",
"T  c #989297",
"R  c #96929B",
"E  c #9A959C",
"W  c #9D999E",
"Q  c #9B97A0",
"!  c #9E9BA2",
"~  c #A29DA3",
"^  c #A29EA8",
"/  c #A3A1A7",
"(  c #A9A4A7",
")  c #A5A2AA",
"_  c #A9A6AC",
"`  c #ABA9AE",
"'  c #AAA6B0",
"]  c #ADABB2",
"[  c #B3AEB4",
"{  c #B2AFB9",
"}  c #B4B1B5",
"|  c #B6B3BA",
" . c #B9B6BD",
".. c #BBB9BF",
"X. c #BDBAC2",
"o. c #C1BDC5",
"O. c #C2BFC9",
"+. c #C5C1C6",
"@. c #C4C2CB",
"#. c #C9C6CB",
"$. c #CBC8CF",
"%. c #CAC7D1",
"&. c #CDCBD2",
"*. c #D1CED4",
"=. c #D3D1D6",
"-. c #D5D3DA",
";. c #D8D6DD",
":. c #DDDADF",
">. c #D7D5E0",
",. c #DAD7E2",
"<. c #DDDBE3",
"1. c #DFDEE8",
"2. c #E1DEE5",
"3. c #E3DEE8",
"4. c #E3E1E6",
"5. c #E5E3EA",
"6. c #E8E6ED",
"7. c #EBEAEE",
"8. c #E7E4F5",
"9. c #E9E7F2",
"0. c #EDEBF3",
"q. c #E8E5F9",
"w. c #EEEBFC",
"e. c #F0EEF5",
"r. c #F1EEFD",
"t. c #F3F1F7",
"y. c #F6F4FE",
"u. c #F8F7FD",
"i. c #FAF9FE",
/* pixels */
"8.w.r.y.y.y.y.y.y.y.u.i.u.u.i.u.i.i.u.i.i.u.i.i.i.i.u.i.u.u.i.i.u.i.u.i.i.i.u.i.i.i.t.i.t.u.y.i.y.u.y.y.y.y.u.y.y.y.y.y.y.y.i.u.",
"8.w.w.y.y.y.y.y.y.i.i.u.u.i.u.i.i.i.i.u.u.i.i.i.i.u.i.u.u.i.i.u.u.i.i.i.i.u.i.i.i.i.u.i.i.u.y.i.u.y.y.u.y.y.y.i.u.y.i.y.u.u.u.u.",
"q.w.r.y.y.y.i.y.i.i.u.i.i.i.i.i.i.i.i.i.i.i.i.i.i.i.i.u.i.u.i.i.i.i.i.i.i.i.i.i.i.i.u.u.u.i.i.i.u.u.u.u.i.u.i.i.i.i.i.y.u.u.i.u.",
"w.w.r.r.y.y.u.u.i.i.y.i.u.u.i.u.i.i.i.i.t.i.i.i.i.i.t.y.i.i.i.i.i.i.u.u.y.i.i.i.i.i.i.i.i.$.-.i.u.u.u.u.y.i.y.i.y.i.u.i.u.i.u.i.",
"q.r.y.y.y.y.i.i.i.u.u.i.i.i.i.u.i.i.i.i.i.i.i.i.i.i.i.i.i.i.i.i.i.i.i.i.i.i.i.i.#.J l ( i.m 5 e.i.u.i.u.u.u.u.t.u.u.i.u.i.u.i.u.",
"w.r.r.r.y.y.u.i.i.i.u.u.u.i.i.i.i.i.i.:.:.i.i.i.i.i.~ ` i.i.u.u.i.i.+.v ;.i.t.i.~ X : = 6.Y # ;.i.y.u.u.u.u.i.u.u.u.u.i.u.i.i.u.",
"w.w.r.y.y.y.i.i.u.u.i.i.i.:.#...4.i.} - * W i.u.i.Z . k i.i.i.i.i.:.- = , +.i.i.u.3 D q f Y $ >.i.u.u.u.u.t.i.i.u.i.i.u.u.i.u.i.",
"w.w.y.y.y.y.y.i.i.i.:.m w , $ O u i.r 2 v + ` i...  s t.i.i.u.i.i.J + =.s - 6.i.i.g p X.$ 3 2 1.i.i.u.u.u.u.i.i.u.u.u.i.u.u.i.u.",
"w.w.w.y.y.u.u.u.t.i.:.q q 3 J | ..5.3 q i.k 7 u.4.f 2 0 B =.i.i.i.l q i.*.X D i.i./ $ 5.N   8 0.u.u.u.u.u.u.u.u.u.i.i.u.i.u.u.i.",
"w.w.y.y.y.y.u.u.u.u.i.i.:.2 X.i.i.5.4 , v q & } i.i.#.T f 8 F i.i.v q i.u., f i.i.:.O ) y.t k i.y.u.u.i.i.u.i.u.u.u.u.i.u.i.i.u.",
"w.r.r.y.y.u.u.u.u.t.u.i.<.- D i.y.9.8 $ $ 8 & W i.u.i.i.i.( + K i.[ + W B X Y i.u.i.I X.i.e.6.u.u.u.u.u.u.u.u.u.u.i.u.u.i.u.u.i.",
"w.r.y.y.y.u.u.i.i.i.u.i.$.= Z i.y.i.r 2 =.+.$ _ i.t.i.} 2 - * K i.i.m O O r 4.i.u.t.i.i.y.u.i.u.u.u.u.u.u.i.i.u.u.u.i.u.u.u.i.u.",
"w.y.y.y.u.u.u.u.u.i.y.i.D O | i.t.i.d 7 i.o.  ( i.i.i.t.~ B +.i.i.i.i.` / 7.i.i.u.u.t.u.i.u.i.i.u.u.u.u.u.u.i.i.u.i.i.u.i.i.u.i.",
"w.y.y.y.i.i.u.i.i.u.i.4.6 7 t.i.t.i.S 4 i.6.k o.i.i.i.i.i.i.i.i.i.i.i.i.i.i.t.i.u.u.u.i.u.u.t.i.u.u.u.u.u.u.u.u.i.u.u.i.u.i.i.u.",
"w.y.y.y.i.u.u.i.u.i.S : X v i.u.u.i.6...i.i.i.i.i.i.i.i.t.u.u.i.i.i.i.i.u.u.i.u.u.u.i.i.u.i.u.i.i.u.u.u.i.u.i.u.u.i.i.u.u.i.u.i.",
"w.w.y.y.t.i.i.u.i.i.} p r X.i.u.i.i.i.i.i.i.i.i.i.t.i.i.i.i.i.i.i.i.i.i.i.i.i.i.i.i.u.u.u.u.i.u.u.u.u.u.u.i.u.u.i.u.u.i.u.u.i.u.",
"w.y.y.i.u.i.u.i.i.u.i.i.y.i.y.i.i.i.u.u.u.u.i.u.u.i.u.i.i.i.i.i.i.i.i.i.i.u.u.u.i.u.i.i.i.i.t.i.u.u.i.u.u.i.u.i.u.i.u.i.u.u.u.i.",
"w.w.y.y.i.u.i.u.u.u.y.u.u.i.i.i.i.y.u.u.u.u.y.u.i.i.i.i.i.u.i.i.i.i.i.i.i.i.i.i.i.i.i.t.4.t.i.i.i.u.i.u.i.u.i.u.u.u.i.u.i.i.i.u.",
"w.y.y.y.i.u.u.u.i.u.u.u.u.i.u.u.i.u.i.i.i.i.i.i.i.i.i.i.u.i.e.} 7.i.i.i.i.W e $.i.u.i.c * 4 x ( t.i.u.i.i.u.i.u.i.u.i.u.u.i.i.u.",
"w.y.y.y.u.i.u.i.u.u.i.i.i.i.u.i.u.i.u.i.e.+.J #.i.i.i.u.i.u.u   i u.i.t.J = $ r u.i.i.] r r * . W i.u.u.u.i.u.i.u.i.u.i.i.u.u.i.",
"w.r.y.u.i.i.u.i.u.u.i.u.u.u.u.i.i.i.i.i.W O O , -.6.u.i.:.v : ] 2 J i.+.O q / $ } i.i.i.i.J & 1 *.i.t.i.i.i.y.i.u.i.i.u.u.i.u.i.",
"w.r.y.u.u.u.i.u.i.u.u.i.u.i.u.u.t.i.i.i.D * W q r 4 T i.}   d ,., g i.+.& 2 9 O g i.u.i.Y + 3 +.i.u.i.u.i.i.i.i.i.u.u.i.i.u.u.u.",
"w.r.y.y.i.u.i.i.u.i.u.u.i.u.u.i.i.i.u.i.S , i.B + = , <.:.= 3 2 * ] i.$.> - i 2 r y.i.4.5 >  .i.i.i.u.u.i.u.i.u.u.i.u.u.u.i.i.u.",
"r.y.y.u.i.i.i.u.i.u.i.i.u.i.i.u.i.u.u.i.~ + 2.J X h - H y.9 = + g i.u.7.1 7 i.j 3 0.i...$ > q 7 } i.u.u.u.i.u.i.i.u.i.u.u.u.i.u.",
"r.r.y.y.u.u.i.i.i.i.u.i.i.u.i.u.u.u.t.i.@.+ ..o.3 @.7 f i.l 3 x $ ] i.i.i 4 i.f > 5.i.y.V > 3 $ F i.t.u.i.u.i.u.u.u.u.i.u.u.i.u.",
"r.y.y.u.u.i.u.i.i.i.i.u.u.i.u.i.i.i.i.i.5.- F i.5.9., s i.E * ,.l = 4.i.I = e.c 3 y.y.i.y.1.1.<.0.u.i.i.u.i.u.u.u.i.i.u.i.u.u.u.",
"w.y.y.u.y.i.y.i.i.i.i.u.u.u.u.i.u.i.i.u.i.s w i.i.y.s C i.o.@ &.i.+.u.u.0._ y.9.&.i.y.y.y.i.i.u.i.u.u.u.u.u.i.u.u.u.i.i.u.u.i.u.",
"r.y.y.y.i.i.i.i.i.u.i.u.i.u.i.u.i.i.u.u.i.o.V u.y.y.t.e.y.y.] 6.i.i.u.t.y.i.y.y.i.y.y.y.y.y.y.y.y.y.u.u.u.u.u.u.u.i.u.u.i.i.u.u.",
"r.y.y.u.u.i.i.u.i.i.u.i.u.i.u.i.u.i.i.i.u.i.i.i.y.y.i.i.y.y.i.i.y.y.i.i.i.i.i.y.y.u.u.u.u.u.y.u.i.u.u.u.u.u.u.u.i.u.u.i.u.i.u.i.",
"r.y.u.u.u.i.u.i.i.i.i.u.i.u.u.i.u.i.i.i.i.t.y.y.y.y.y.y.y.y.y.y.y.i.0.X. .<.y.i.u.u.u.u.u.u.u.u.u.u.u.u.u.u.u.u.u.i.u.u.i.u.u.u.",
"r.y.u.u.i.i.i.i.u.i.u.i.i.u.i.u.i.i.u.i.i.u.y.y.y.y.i.y.y.y.y.y.i.2.L N ^ G E 5.i.u.u.u.u.y.u.u.u.u.u.u.u.i.i.u.i.u.u.i.u.i.i.i.",
"y.y.u.u.u.i.i.i.i.u.i.u.u.i.u.i.u.i.t.i.u.u.u.u.y.y.y.y.i.y.i.i.6.F R ! ' X.] N 0.u.y.u.u.u.u.u.u.u.u.i.u.i.u.u.i.i.i.u.i.i.i.i.",
"y.u.u.i.i.i.i.i.i.i.i.i.i.i.i.i.u.i.i.u.u.u.u.u.i.y.y.y.i.i.y.i.R W X.' G X.L h [ i.i.i.i.y.i.y.i.i.y.i.u.i.i.u.i.u.u.i.i.i.i.i.",
"y.y.u.i.i.i.i.i.i.i.i.i.y.i.y.y.i.u.i.u.i.u.u.u.i.i.i.i.y.y.i.y.V N X.X.R P @.u I y.y.y.y.y.y.y.i.y.u.u.u.i.u.i.u.i.i.u.i.i.i.i.",
"y.y.i.i.i.i.i.i.i.i.i.y.i.i.i.i.i.u.u.i.i.u.u.u.y.i.i.y.y.y.i.t.R Y ! | X.b X.L j i.y.y.y.y.y.i.y.u.u.u.i.i.y.i.i.u.u.u.u.i.i.i.",
"y.y.y.i.y.i.i.i.u.i.i.i.i.i.i.y.u.i.i.i.u.i.u.u.y.y.y.i.y.y.i.%.R 0.Q ) ' P R X.H i.y.i.y.i.y.y.y.u.y.u.y.y.i.i.u.u.u.u.u.i.i.i.",
"y.y.i.i.i.i.i.i.i.i.i.u.i.i.y.i.i.i.y.i.u.u.u.u.i.y.i.y.y.i.4.m y -.e.Q Q Q Q ' ' i.y.y.y.y.y.u.y.y.i.y.y.y.y.y.y.u.u.u.u.u.u.u.",
"r.y.i.u.i.i.i.i.i.u.u.i.y.i.i.i.i.u.u.i.u.u.u.u.y.i.y.y.i.3.i < 8 u Q ] A h p G y.y.y.y.y.y.u.u.y.i.y.y.i.y.i.y.u.u.u.u.u.u.u.y.",
"y.u.u.i.i.i.i.i.i.i.u.i.i.i.i.y.u.u.i.u.u.i.u.u.i.i.t.i.3.j u z Q t y ) u A X.y.y.y.y.u.y.u.u.y.y.y.y.y.y.i.y.y.y.y.u.u.u.u.u.y.",
"y.u.u.i.i.i.i.i.i.i.i.i.i.i.i.i.i.i.u.i.i.u.i.u.i.u.i.,.b z i z U x 7 Z O.i.i.y.y.y.u.y.y.y.y.u.y.y.i.y.y.y.i.y.y.i.u.u.u.u.u.u.",
"y.y.y.i.i.i.i.i.u.i.i.i.i.i.i.i.u.i.i.u.u.i.u.u.y.i.#.j N j b S h p u C i.t.y.y.i.y.i.u.y.y.y.y.u.u.u.u.u.u.u.u.u.u.u.u.u.i.u.i.",
"y.u.i.i.i.i.i.i.i.i.i.i.i.i.i.i.i.u.u.i.i.u.i.t.i.X.9 L a a U n h n b 3.i.y.u.u.y.i.u.u.i.u.i.y.y.u.u.u.u.u.u.u.u.i.u.u.i.u.u.i.",
"y.u.i.i.i.i.i.i.i.i.i.i.i.i.i.i.i.u.i.u.i.i.y.i.&.5 5 5 8 n M V d m r.i.y.u.u.u.u.u.u.u.y.y.u.i.u.u.u.u.u.u.u.u.u.u.u.u.u.i.i.u.",
"y.i.u.i.i.i.i.i.i.i.i.i.i.i.y.i.i.u.u.i.i.i.i.-.a > < u 8 t d 9 c i.y.y.u.u.u.u.u.i.u.i.i.i.y.u.u.u.u.u.u.u.u.u.u.i.i.u.i.u.i.i.",
"y.i.i.i.i.i.i.i.i.i.u.i.i.i.i.i.i.i.i.i.y.i.e.s 5 , a p t r 4 S i.y.y.y.u.u.i.i.u.i.u.i.i.u.u.u.u.u.u.u.u.u.u.u.u.i.u.u.u.u.i.u.",
"y.u.u.u.i.i.i.i.i.i.i.u.i.i.i.i.i.i.i.i.t.i.` 0 1 z y 1 e 2 W i.y.y.i.u.i.u.u.i.i.u.i.u.u.u.u.u.u.u.u.u.i.u.i.u.i.u.i.i.i.i.i.i.",
"u.i.u.i.u.i.i.u.i.i.i.i.i.i.i.i.i.i.i.i.i.6.) e f m d 2 > | i.y.y.i.i.i.u.i.i.u.u.i.u.i.u.u.u.u.u.u.u.u.i.u.u.u.u.i.i.u.i.u.u.i.",
"y.u.i.i.u.u.i.i.i.i.i.i.i.i.i.i.i.i.i.i.i.:.y u A t ; g &.i.y.u.i.i.y.i.i.u.u.i.i.u.u.i.u.u.u.u.u.u.u.u.u.i.u.i.u.u.u.i.u.i.i.i.",
"u.i.i.u.i.u.i.i.u.i.i.u.i.u.i.i.i.i.i.i.i.y.c p 3 5 b y.i.y.u.u.u.i.i.u.i.i.i.i.u.i.u.i.u.u.u.u.u.u.u.u.u.u.u.i.u.i.i.i.u.i.u.i.",
"y.i.u.i.u.i.u.i.i.u.i.u.u.i.i.i.i.i.i.i.i.i.*.D 5 S i.i.t.u.i.u.i.i.u.i.i.i.t.i.i.i.u.u.i.u.u.u.u.u.u.u.u.u.u.u.u.i.u.u.i.u.u.i.",
"y.i.i.u.u.i.i.u.i.u.i.i.i.u.i.u.i.i.i.i.i.u.i.} | i.y.y.i.i.i.i.u.i.i.i.i.i.i.i.u.i.u.i.u.u.i.u.u.u.i.u.u.u.u.u.u.u.u.u.i.u.i.u.",
"u.u.i.i.i.u.i.i.u.i.i.u.i.i.u.i.i.i.i.i.i.i.i.i.i.y.i.i.i.t.i.i.i.i.i.i.i.i.i.i.u.i.i.u.i.u.u.u.u.u.u.i.u.u.u.u.u.u.u.u.u.i.u.i.",
"y.u.u.i.u.i.i.u.i.i.u.i.u.i.i.u.i.i.i.i.i.i.u.u.i.i.i.i.i.u.i.i.y.i.i.i.i.i.i.i.i.u.i.u.i.u.u.u.u.u.u.u.u.u.u.u.u.u.u.u.i.i.u.i.",
"r.i.i.i.u.i.i.u.u.u.i.i.i.u.u.i.i.i.i.i.i.i.i.i.u.i.u.i.i.i.i.i.i.t.i.i.i.i.i.i.u.i.u.i.u.i.u.i.i.u.u.i.u.u.u.u.u.i.u.u.u.u.i.u.",
"i.i.i.u.i.i.u.i.i.u.i.u.i.i.i.i.i.i.i.i.i.i.:.i.i.i.i.i.u.i.i.i.i.i.i.i.i.i.#.7.i.i.i.u.i.u.i.y.u.u.i.u.i.u.u.u.u.u.u.i.i.u.u.i.",
"i.i.u.i.u.i.i.u.i.i.u.i.u.u.i.u.i.i.i.7.4.-.~ 5.7.4.;.i.i.*.W +.4.( 4.t.i.o.k ../ 5.i.u.u.i.i.u.i.u.u.i.u.i.u.u.u.u.u.i.u.i.u.u.",
"u.u.u.i.u.i.i.u.u.i.u.i.i.u.i.i.i.u.i.E T t.4.H T T ^ i.i.e.x *.W ..D ..o.T J &._ | i.i.i.y.u.i.i.u.u.i.i.u.u.u.u.u.u.i.u.u.i.u.",
"u.i.i.u.i.u.i.i.i.u.i.u.u.i.i.u.i.u.i.;.*.i.2.H -.4.O.3.i.i.o.0.} W *.} } =.*.t.2.K i.i.i.i.i.i.u.u.i.u.u.i.u.i.u.i.i.u.u.i.u.i.",
"u.i.i.i.i.u.i.u.i.u.i.i.i.u.u.i.i.i.i.9.J 6.4.~ i.i.i.i.i.i.t.u.i.e.i.i.i.i.i.i.e.y.i.i.i.i.i.i.i.u.u.i.i.u.i.u.i.u.i.i.u.i.i.u.",
"u.u.u.i.u.i.i.u.u.i.u.i.u.i.u.i.i.i.i.u.} 6.i.t.i.i.i.i.i.i.i.u.u.i.i.i.i.i.i.i.i.i.i.i.i.y.i.y.u.i.i.u.u.i.u.i.i.u.u.i.i.u.i.u.",
"u.i.u.i.i.u.i.i.u.i.i.u.i.i.u.i.u.i.i.u.i.i.i.i.i.i.i.i.i.u.i.i.i.i.i.i.i.i.i.i.i.i.u.u.i.i.i.i.i.u.i.i.i.u.i.u.i.i.i.u.u.u.i.i.",
"y.i.i.u.u.i.i.u.i.u.i.i.i.u.u.i.i.u.u.i.i.u.i.i.i.i.i.i.u.i.i.u.i.i.i.i.i.i.i.i.i.i.i.i.i.i.i.i.i.i.i.i.i.i.i.u.u.u.i.i.i.u.i.u.",
"u.i.i.u.i.u.u.i.i.u.i.u.u.i.i.u.i.i.i.i.i.i.i.i.i.i.i.i.u.i.i.u.i.i.i.i.i.i.i.i.i.i.i.i.i.i.i.i.i.i.i.i.i.i.i.u.u.i.u.u.i.i.u.i.",
"u.i.u.i.i.u.i.i.u.i.u.i.i.u.i.i.u.i.i.i.i.i.i.i.i.i.i.i.i.u.i.i.i.i.i.i.i.i.i.i.i.i.i.i.i.i.i.i.i.i.i.i.i.i.i.i.u.i.i.u.i.i.u.u."
};
