/* XPM */
static char *_6cb3a16ca504984be93e38af31604b6G9nKF4taaDfG5gPX[] = {
/* columns rows colors chars-per-pixel */
"64 64 169 2 ",
"   c #020204",
".  c #090506",
"X  c #0C0907",
"o  c #060609",
"O  c #090709",
"+  c #0C0A0C",
"@  c #110E0E",
"#  c #12110E",
"$  c #0F0D11",
"%  c #110E11",
"&  c #141213",
"*  c #191515",
"=  c #1B1817",
"-  c #161518",
";  c #1A1619",
":  c #1C1A1B",
">  c #221D1D",
",  c #1F1E20",
"<  c #221F21",
"1  c #252323",
"2  c #2A2525",
"3  c #2C2826",
"4  c #262528",
"5  c #2B2729",
"6  c #2D2B2B",
"7  c #312C2D",
"8  c #34302F",
"9  c #312F30",
"0  c #353233",
"q  c #393536",
"w  c #3C3836",
"e  c #373738",
"r  c #393739",
"t  c #3D3A3B",
"y  c #413D3E",
"u  c #43413F",
"i  c #3F3D40",
"p  c #423F41",
"a  c #454343",
"s  c #494545",
"d  c #4A4847",
"f  c #474548",
"g  c #4A4648",
"h  c #4D4A4B",
"j  c #514D4E",
"k  c #53514F",
"l  c #58544F",
"z  c #534F51",
"x  c #555353",
"c  c #595655",
"v  c #5A5A57",
"b  c #595758",
"n  c #5D5A5B",
"m  c #615E5C",
"M  c #63605E",
"N  c #615F60",
"B  c #656363",
"V  c #696665",
"C  c #6B6967",
"Z  c #6A6769",
"A  c #6D6B6A",
"S  c #706C67",
"D  c #706D6D",
"F  c #74726E",
"G  c #757373",
"H  c #797674",
"J  c #7B7976",
"K  c #777678",
"L  c #787778",
"P  c #7C7A7B",
"I  c #817F7D",
"U  c #83817F",
"Y  c #858382",
"T  c #888784",
"R  c #8B8986",
"E  c #898788",
"W  c #8D8B8B",
"Q  c #908F8F",
"!  c #92918F",
"~  c #98948F",
"^  c #928F90",
"/  c #959392",
"(  c #989696",
")  c #9A9995",
"_  c #9A9798",
"`  c #9D9C9B",
"'  c #A29F9E",
"]  c #A3A19D",
"[  c #A5A3A3",
"{  c #A9A6A5",
"}  c #ADABA7",
"|  c #ADABAB",
" . c #B1AFAB",
".. c #B4B1AD",
"X. c #B4B3B3",
"o. c #BBBAB6",
"O. c #B8B6B9",
"+. c #BCBBBB",
"@. c #C0BEBD",
"#. c #C2C1BF",
"$. c #C5C4C3",
"%. c #C9C7C3",
"&. c #CCCBC5",
"*. c #CDCCCB",
"=. c #D1CFCA",
"-. c #D2D1CD",
";. c #DAD8CF",
":. c #D5D4D3",
">. c #D9D7D4",
",. c #DAD9D6",
"<. c #DCDBDA",
"1. c #E0DFDC",
"2. c #E2E1DD",
"3. c #DFE0E0",
"4. c #E5E5E3",
"5. c #E8E7E4",
"6. c #E7E8E5",
"7. c #E9E9E5",
"8. c #E9E7E8",
"9. c #ECEBEB",
"0. c #F1EEE7",
"q. c #F0EFEF",
"w. c #F1F1EE",
"e. c #F2F2EE",
"r. c #F9F3E8",
"t. c #FBF9ED",
"y. c #F1EFF0",
"u. c #F2F1F2",
"i. c #F5F4F3",
"p. c #F7F6F6",
"a. c #F5F4F4",
"s. c #F4F4F3",
"d. c #F8F6F7",
"f. c #F8F7F7",
"g. c #FAF9F2",
"h. c #FCFBF1",
"j. c #FAFAF6",
"k. c #FDFBF5",
"l. c #FDFBF7",
"z. c #FDFCF5",
"x. c #FDFCF6",
"c. c #FDFCF7",
"v. c #FEFCF7",
"b. c #FAF9F4",
"n. c #F9F9F9",
"m. c gray98",
"M. c #FDFBF8",
"N. c #FDFBFA",
"B. c #FDFCF8",
"V. c #FEFDF9",
"C. c #FEFDF9",
"Z. c #FEFEF9",
"A. c #FDFCFB",
"S. c #FEFDFA",
"D. c #FEFDFB",
"F. c #FEFEFA",
"G. c #FFFEFB",
"H. c #FCFBFC",
"J. c gray99",
"K. c #FDFDFD",
"L. c #FEFEFC",
"P. c #FFFFFC",
"I. c #FFFFFD",
"U. c #FEFEFD",
"Y. c #FEFEFE",
"T. c #FFFFFE",
"R. c white",
"E. c #FEFEFF",
"W. c #FFFFFE",
/* pixels */
"R.R.R.R.R.R.R.R.m.R.H.R.R.H.R.R.R.R.R.R.R.R.R.R.R.R.A.R.R.R.R.R.R.R.R.R.R.R.R.R.A.R.R.R.R.R.R.R.R.R.R.R.R.R.R.A.A.v.A.A.v.t.t.r.",
"R.R.R.R.R.R.R.R.R.R.R.R.R.R.R.R.R.R.J.m.m.p.a.i.w.w.9.7.7.8.7.5.4.2.2.2.2.2.2.2.2.<.<.2.1.1.2.<.2.1.2.1.2.1.1.g.A.A.A.v.A.z.z.z.",
"R.R.R.R.R.R.R.P a x z s s y t w 0 8 3 1 1 : : ; * & # # + + + + o o                                           -.R.m.A.v.A.v.z.z.",
"R.R.R.R.R.R.R.j   = = * % % ; ; : > : < > 1 5 6 6 6 9 q r r r r t t y p p p y y p p a a s a a a a a a a a s a >.R.v.A.A.v.z.z.z.",
"R.R.R.R.R.R.R.4.1.8.q.q.i.9.q.y.u.p.R.R.R.R.R.N.R.R.R.R.R.R.R.R.R.R.R.R.R.R.R.R.R.R.R.R.R.R.R.R.R.R.R.R.R.R.R.R.A.v.v.v.v.A.v.v.",
"R.R.R.R.R.R.R.R.H.8.2.1.,.N.R.R.R.u.+.#.O.#.m.R.,.[ { 8.R.R.9.` / $.R.J.R.>.) G B A / 9.R.A.` T R U T R U *.R.j.A.R.A.v.A.v.A.A.",
"R.R.R.R.R.R.R.R.4.5 > * . Q R.d.R.G   .   1 a.R.Y     +.R.R.:.    m R.R.! .   o : % o 1.R.R.6     + @ &   ) R.j.A.R.A.A.A.v.A.A.",
"R.R.R.R.R.R.R.R.4.2 > 2 * 7 i.R.7.: * 2 . 8 a.R.W   + @.R.R.<.&   Z R.8.&   3 9.R.R.4.p.R.R.t   8 R.R.R.R.A.R.A.A.R.R.A.v.A.A.v.",
"R.R.R.R.R.R.R.R.8.3 # F y   ] R.!   m M   7 a.R.W   . +.R.R.<.%   B R.m.t     s Y ..n.R.m.R.a   : ! ) / / 7.R.A.R.R.R.A.A.A.A.A.",
"R.R.R.R.R.R.R.R.7.5   / R   h R.q   @.C   7 u.R.^   . +.R.R.<.&   B R.R.4.B 4       : +.R.R.a   + O X +   $.R.v.R.A.R.A.A.R.R.R.",
"R.R.R.R.R.R.A.R.8.3 . Q 5.& > C X 0 R.m   3 u.R.!     X.R.R.3.%   m R.m.R.R.R.4.! +   a R.R.s   2 a.R.A.A.R.R.A.v.A.A.A.A.A.A.R.",
"R.R.R.R.R.R.R.R.9.7 @ Y R.m X = . ^ R.m   7 q.R.$.    a >.4.Z     ) R.R.[ [ :.2.[ +   b R.R.h   > +.&.&.$.>.R.A.A.R.R.A.A.A.A.R.",
"R.R.R.R.R.R.R.R.9.<   F R.+.    > 8.R.c   > q.R.R._ >         & L R.N.R.t         X s 4.R.R.a   o         h R.m.R.R.R.A.A.R.R.R.",
"R.R.R.R.R.R.R.R.d._ T #.R.N.} ' #.R.R.*.} +.R.R.R.R.u.$.| { #.9.R.R.R.R.9.*.o.O.$.4.R.R.R.R.2.:.>.>.>.>.>.5.R.R.A.A.R.A.A.A.R.R.",
"R.R.R.R.R.R.R.R.R.R.R.R.R.R.H.R.R.p.p.R.R.R.w.q.9.7.9.p.d.d.i.8.1.1.3.1.4.7.9.9.7.2.,.>.>.>.2.5.2.2.2.2.2.2.>.w.R.R.A.A.A.A.R.R.",
"R.R.R.R.R.A.R.W w y t t w 0 7 2 3 2 1 > : ; = ; * # + + O . .   O .                                       .   ] R.m.A.A.v.A.A.A.",
"R.R.R.R.R.m.R.S @ > > > < 5 2 5 7 7 7 7 7 0 0 0 0 r r t y y y p a a a a g g a g g g d s s g g h h h j j j z a +.R.A.A.R.A.A.A.R.",
"R.R.R.R.R.R.R.q.4.9.q.q.u.a.d.p.d.d.m.N.H.H.R.R.R.R.R.R.R.R.R.R.R.R.R.R.R.R.R.R.R.R.R.R.R.R.R.R.R.R.R.R.R.R.R.R.R.A.R.A.R.A.R.R.",
"R.R.R.R.R.R.R.R.R.R.R.R.H.R.R.R.R.R.R.R.R.R.R.R.R.R.R.R.R.H.R.R.R.H.J.R.R.H.R.A.R.A.A.A.A.R.R.A.R.N.H.N.A.A.A.A.R.R.R.R.R.R.A.R.",
"R.R.R.R.R.R.R.R.R.m.R.R.R.R.H.R.R.R.H.R.R.H.R.R.R.R.R.R.R.R.R.R.R.R.R.R.R.R.R.A.R.A.R.R.R.R.R.A.R.R.R.R.R.R.A.R.R.A.A.R.R.A.A.R.",
"R.R.R.R.R.R.R.R.R.R.R.R.R.R.R.R.R.R.R.R.R.R.R.R.R.R.R.R.R.R.R.R.R.R.R.R.R.R.A.R.R.A.R.R.R.R.R.R.A.A.R.A.R.A.A.R.R.R.A.R.A.A.A.R.",
"R.R.R.R.R.R.R.R.R.R.R.R.R.R.R.R.R.R.R.R.H.R.R.R.R.R.R.R.R.R.R.R.R.R.R.R.R.R.R.R.R.R.A.R.R.R.R.R.R.R.A.R.A.A.A.R.R.R.A.R.R.A.A.R.",
"R.R.R.R.R.R.R.R.R.R.R.R.R.R.R.R.R.R.H.R.R.R.R.R.R.R.R.R.R.R.R.R.R.R.R.R.R.R.R.R.A.R.R.R.R.A.R.R.R.R.A.A.A.R.A.A.A.R.A.R.R.A.R.R.",
"R.R.R.R.R.R.R.R.R.R.R.R.R.R.R.R.R.R.R.8.*.R.R.R.R.R.R.R.R.R.R.R.R.R.R.R.R.R.R.R.R.R.R.R.R.R.R.A.R.A.A.R.R.A.R.A.A.A.A.A.R.R.R.R.",
"R.R.R.R.R.R.R.R.R.R.R.R.R.m.R.R.J.+.P h ( R.R.R.R.R.R.R.R.R.R.R.R.R.R.R.R.R.R.R.R.R.R.R.R.R.R.A.A.R.R.r.g.R.A.A.A.R.A.R.R.A.R.A.",
"R.R.R.R.R.R.R.R.R.R.m.m.R.R.q.[ C H | u.R.R.R.R.R.R.R.R.R.R.R.R.R.R.R.R.R.R.R.R.R.R.R.R.R.A.A.R.R.k.D 1 1 { R.v.A.R.R.R.R.R.R.A.",
"R.R.R.R.R.R.R.R.A.R.R.R.4.^ A ' 8.R.R.R.m.R.R.R.R.R.R.R.R.R.R.R.R.R.R.R.R.R.R.R.R.R.R.R.R.R.R.A.R.$.  # X 1 9.R.l.A.R.R.R.R.A.R.",
"R.R.R.R.R.R.m.J.R.+.G B y +.R.R.R.m.R.R.R.R.R.R.R.R.R.R.R.R.R.R.R.R.R.R.R.R.R.R.R.R.A.R.A.R.R.A.A.v.y @ ; X ) R.R.R.A.R.R.A.R.e.",
"R.R.R.R.m.R.R.R.X.;   % O.R.J.m.R.R.R.R.R.R.R.R.R.R.R.R.R.R.R.R.R.R.R.R.R.A.R.R.A.A.R.R.R.R.H.R.R.2.c . & @ @ M #.7.R.A.j.R.o.3 ",
"R.R.A.R.R.8.( a   + + t u.R.R.R.R.R.R.R.R.R.R.R.R.R.R.R.R.R.R.R.R.R.R.R.A.R.R.A.A.A.R.R.R.R.R.g.F + + * @ @ @   o & B R.R.9.; ; ",
"R.R.R.R.P &     + + @   : q 0 { R.R.R.R.R.R.R.R.R.R.R.R.R.R.R.R.R.R.A.R.R.R.R.A.A.R.R.R.A.N.R.H   * * # ; & & @ + .   [ 6.7 T R.",
"R.m.P ; ;   B V o + + +       * 8.R.R.R.R.R.R.R.R.R.R.R.R.R.R.R.R.R.R.R.R.R.R.R.R.R.R.A.A.R.g.8 # > = = ; & % @ O + O &   r R.R.",
"R.H.[ G N   o.R.H   % O O + %   W R.m.R.R.R.R.R.R.R.R.R.R.R.R.R.R.R.R.R.R.R.R.R.R.R.R.A.A.R.2.> * * * * * # % + + O o o   : 4.R.",
"R.J.R.O.$   t u.h   % + O + +   G R.m.R.R.R.R.R.R.R.R.R.R.R.R.R.m.A.R.R.R.R.R.A.A.R.A.A.A.R...+ * # # # & % @ @ + O   + $   ( R.",
"R.R.R.<.: O   1 & + + O O + +   ( R.m.R.R.R.R.R.R.R.R.J.R.R.A.R.R.R.R.R.A.A.R.R.R.A.A.l.A.R.C   @ @ @ # @ & @ + O % -     O -.R.",
"R.R.m.R.|   +     o + O . O +   | R.A.R.R.H.<.( p.m.R.R.R.R.R.<.[ <.R.A.R.A.R.R.R.R.J.R.R.#.w   u m   * & @ @ +   r 1.Z B %.R.m.",
"R.R.R.R.J.P , o : n o $ O X +   | R.s.W x a < . r d B +.R.R.O.+   ; <.R.A.R.R.R.R.-.W B w + :   y c . % % @ + @ O + ,.R.R.R.l.R.",
"R.R.R.R.H.R.b   0 b   + O + %   Y R.n.s.5.u.T B 7.4.8.p.H.R.B   -   G R.R.m.R.R.R.&.' ( [ a & @ 2 ~ @ @ + + + + +   +.R.a.l.A.R.",
"R.R.R.R.H.R.| N <   O O O X +   h R.H.R.R.R.p./ $.R.R.R.H.R.9., o   x 2.5.R.R.m.m.R.R.R.R.*.0 . : 7 @ @ @ @ + + +   o.R.v.A.A.R.",
"J.J.H.J.R.R.R.{ O $ + O O O +   ; p.R.R.R.P C h p X.y.J.R.9.Z & o o o o & P 7.R.R.R.j.v.a.R./ 2 : + % @ @ & + + O o *.R.A.A.A.A.",
"R.R.R.R.R.R.u.*   + + + + O o : a ,.:.$.,.Z e 6 ` R.R.R.R.Z   o o o o o     + r Y j.R.j.A.A.R.{ > % % % @ % + + o * 5.R.v.l.A.A.",
"N n x $.R.R.$.o $ O + + + $   W >.[ 7 4 / K n   b *.-.<.| & O o o o o o $ h P x   G R.R.R.R.R...& + % @ % % % +   6 v.R.R.R.R.R.",
"      P R.R.B   % O + + O +   ' R.R.W c J.4.+.< 0 P   +   o o o o       9 t W <.P F { T 2.;.5.] 2 < O $ + $ % $   M R.>.>.>.>.-.",
"+ $   d R.p.1   O $ + O O $   ` R.m.b b R.R.a.Z ] A   + + o o o     o   T *.} Z B a     k I ( [ I +.  % $ @ $ %   ] &.  + X + o ",
"o o   ; R.+.  + +   o O O +   X.R.a.h n R.R.2.a A t   o o o   o o o     / *.2.p.A.o.: h ] +.J ..S -.2 X + @ + +   =.}   + o o o ",
"O o O   >.L   +   B {   + +   B R.R./ a R.R.,.+ e (   o o o   o   o o   A &.6 3 8 : O 1 * . ; ..8 &.s   & @ % o 1 v.!   + o o o ",
"o o +   W t   +   $.R.g   %   c R.R.T 0 R.R.*.1 n [   O o o   o o o   o   6 O       o   o   3 >.k R. .X + + +   F R.J   + o o o ",
"o o o   , + O   b R.R.:.. +   6 *.R.T x R.R.<.& t z   O   o o o o   o   o   o o O o o o O   3 2.C v.0.* o + &   U R.C   o o o o ",
"o o     o O   0 a.R.m.R.H   +     { / a R.R.-.  4 G   + :   o o   o o o o o   o   o   o o   6 5.V R.<.q & . +   H R.k   O o   o ",
"  o   o o O   E R.n.R.R.u.1   +     ( H R.R.n   % ' O o O o o   o               o   o o o   4 o.l ;.F 7 : o &   C R.w   O o   o ",
"o o o o o o   O.R.J.R.m.R.|   o +   1 6 } [ & $ o A +       o       o     o   o             O , > l I u 7 o +   C R.3   o   o o ",
"o o o   o   : u.R.J.J.R.m.R.G   o o   : e - Q + & B B 9     o o o     o     o   o : 1 < 6 & - d # ' ~ 1 m + o   F t.;   o   o   ",
"o o o o +   ^ J.R.R.R.R.R.R.8.<   o o o 6 Y 4 o - t Z $   - O   o             & r - d F e v ;   u C w 3 &   +   l r.+   o   o o ",
"o o o o O O +.6.<.4.4.4.5.4.A X.r   O   : 5.P : & - +     , 4 -       o     M m ; c G :  .E ; * I #.F l u   o   3 ) o   o     o ",
"o o o o O O # $ % & & - - & + 1 & o o o   $ & +   # &   o   $ &       o   o ; o o $ $ + $   o   # + @ o o o   o o     o       o ",
"    o   o O O O o O o o o o O         o         o     o o o       o     o     o           o   o       o   o o     o o   o o o o ",
"  o     o O + O + O + O + o + o o     o         o o   o       o   o         o   o o     o     o o   o   o     . o     o   o   O ",
"o   o   o O o o O $ + o o     o   o o     o             o o               o   o         o     o   o   o   o o o o o o o o   o # ",
"o o o o o o   O o o o o o o o o   o o   o o o o o o   o o o   o o   o o               o o     o   o o                   o o   : ",
"o   o o                                                             o o o o o       o   o o : o       o O o + X + + & = + + + 1 ",
"o O + 1 m 6 9 m t y 4 n c l a a j x n e a a t w t 6 a j z j n n r               o   o   + O v 0 k u 2 V M m l S S M a m : X + 1 ",
"+ O + 1 P I G N G D C U U P H c B G m a B B P D J J V D C C B S G x h h a n w   o o o o + X y j d s s j d a u s u w & - = + o * ",
"* & & & q j s w a p l j k h k 9 h s 1 s h r s u d d h k h z w u t c j h d c e   O O + + $ + : > ; ; * * & & & $ o O $ $ + O o & ",
"2 < ; ; * @ < 7 > 7 q 1 # # $ & @ @ # + O +     . . o o X   + +               O o + + + + + + & + @ + @ O O o O $ + O + + O O $ "
};
