/* XPM */
static char *c115a66f8c9745bcb5dac64d4425115fxjeZ9b2BVnSgcHk7[] = {
/* columns rows colors chars-per-pixel */
"64 64 235 2 ",
"   c #16152D",
".  c #191A35",
"X  c #1B1E3B",
"o  c #171833",
"O  c #1C203F",
"+  c #1D2243",
"@  c #1F2749",
"#  c #22294D",
"$  c #212548",
"%  c #3B3C4B",
"&  c #232C53",
"*  c #272E58",
"=  c #26325C",
"-  c #29325C",
";  c #2A3562",
":  c #2E3B6B",
">  c #2B3966",
",  c #313F73",
"<  c #2F3E71",
"1  c #2E4274",
"2  c #324175",
"3  c #32457B",
"4  c #33497F",
"5  c #4A4C58",
"6  c #4E515D",
"7  c #50515D",
"8  c #4C5867",
"9  c #525562",
"0  c #535D6A",
"q  c #5A5D6A",
"w  c #565965",
"e  c #4F5F75",
"r  c #59616E",
"t  c #566572",
"y  c #5A6572",
"u  c #566976",
"i  c #5A6976",
"p  c #566C7A",
"a  c #5B6D7A",
"s  c #55647A",
"d  c #5B717E",
"f  c #56717E",
"g  c #4C667C",
"h  c #626673",
"j  c #636D7B",
"k  c #666A78",
"l  c #62717E",
"z  c #6E6C77",
"x  c #344B83",
"c  c #394E8B",
"v  c #384983",
"b  c #37528D",
"n  c #3C5392",
"m  c #3C599A",
"M  c #357899",
"N  c #3E5EA3",
"B  c #1D7EB4",
"V  c #1E7EBA",
"C  c #3D65AD",
"Z  c #3D68AE",
"A  c #2A7DA6",
"S  c #3D66B0",
"D  c #3C6AB2",
"F  c #376DB2",
"G  c #2C76B6",
"H  c #217CB3",
"J  c #237DBA",
"K  c #2A7AB9",
"L  c #2A79B6",
"P  c #3373B5",
"I  c #3A71B3",
"U  c #327DA2",
"Y  c #42569A",
"T  c #4A6C87",
"R  c #586D83",
"E  c #5A7483",
"W  c #597788",
"Q  c #567C94",
"!  c #497693",
"~  c #637484",
"^  c #647C8B",
"/  c #69798A",
"(  c #777B8A",
")  c #6C7E92",
"_  c #677E97",
"`  c #727E90",
"'  c #465DA8",
"]  c #4465AE",
"[  c #4A62AE",
"{  c #4269AE",
"}  c #4A6BAD",
"|  c #4060A4",
" . c #4C78A8",
".. c #567AA8",
"X. c #4465B1",
"o. c #4964B1",
"O. c #4369B2",
"+. c #4B6BB1",
"@. c #4B77B3",
"#. c #1B84B6",
"$. c #1685BC",
"%. c #1B83BC",
"&. c #148BBE",
"*. c #1A8ABD",
"=. c #1991BE",
"-. c #0F8DBF",
";. c #3786AA",
":. c #2C8CB4",
">. c #2182BB",
",. c #248BB8",
"<. c #378CB4",
"1. c #2C94BC",
"2. c #2894B9",
"3. c #3B99BD",
"4. c #3894B9",
"5. c #2F88AD",
"6. c #4A8199",
"7. c #5B8498",
"8. c #63818E",
"9. c #648394",
"0. c #6B8293",
"q. c #6D899C",
"w. c #66869B",
"e. c #768599",
"r. c #488AA9",
"t. c #588AA8",
"y. c #5991AE",
"u. c #458BB5",
"i. c #598DB5",
"p. c #4897B8",
"a. c #5796B9",
"s. c #4992AE",
"d. c #6C8CA4",
"f. c #658CA6",
"g. c #768DA3",
"h. c #6C93AB",
"j. c #6B90A6",
"k. c #7695AC",
"l. c #6989B3",
"z. c #679AB6",
"x. c #779AB4",
"c. c #728DB6",
"v. c #67A1BE",
"b. c #7DA4BB",
"n. c #7AA3B8",
"m. c #0F8EC0",
"M. c #138DC1",
"N. c #1A8CC1",
"B. c #0D94C4",
"V. c #0E99C6",
"C. c #0E9CC9",
"Z. c #1294C3",
"A. c #129AC6",
"S. c #1D9BC5",
"D. c #129DC9",
"F. c #1C9EC8",
"G. c #1991C2",
"H. c #249CC4",
"J. c #2B9CC3",
"K. c #2697C4",
"L. c #349CC3",
"P. c #3C9DC3",
"I. c #3395C0",
"U. c #218EC0",
"Y. c #14A2CC",
"T. c #1CA4CC",
"R. c #1BA0C7",
"E. c #1CA9D0",
"W. c #23A4CB",
"Q. c #2BA4CB",
"!. c #24A9CE",
"~. c #2CA9CE",
"^. c #28A1C7",
"/. c #34A5CA",
"(. c #3BA5CA",
"). c #34AACE",
"_. c #3CAACE",
"`. c #39A1C6",
"'. c #2CADD1",
"]. c #24ACD1",
"[. c #35ADD1",
"{. c #3CAED1",
"}. c #2BB0D4",
"|. c #3DB2D4",
" X c #35B1D4",
".X c #449DC1",
"XX c #4B9EC2",
"oX c #5B99C3",
"OX c #5D8DC2",
"+X c #649EC5",
"@X c #42A2C5",
"#X c #4AA2C5",
"$X c #43A6CA",
"%X c #4BA5CA",
"&X c #43AACD",
"*X c #4CABCD",
"=X c #53A3C5",
"-X c #52ABCD",
";X c #5CACCC",
":X c #59A5C7",
">X c #43AED1",
",X c #4CAED0",
"<X c #53AED0",
"1X c #59AFD1",
"2X c #44B2D3",
"3X c #4BB2D3",
"4X c #4BB8D9",
"5X c #54B2D3",
"6X c #5AB3D4",
"7X c #5FB2CF",
"8X c #66AAC8",
"9X c #78ABC8",
"0X c #68B7D4",
"qX c #73B2CE",
"wX c #878896",
"eX c #928B95",
"rX c #8593A9",
"tX c #889BB6",
"yX c #8C94AE",
"uX c #A99DA7",
"iX c #86A4BC",
"pX c #9BA4BC",
"aX c #A7AABC",
"sX c #B2A4AD",
"dX c #A29298",
"fX c #86AAC3",
"gX c #8BB3CA",
"hX c #94B6CC",
"jX c #96BED3",
"kX c #97B1C8",
"lX c #B3B4C4",
"zX c #9BC4D9",
"xX c #A2C9DD",
"cX c #A8CFE3",
"vX c #CECFDB",
/* pixels */
"*X-X-X1X=X-XXXu.(.L.L.L.J.D.D.H.I.:..XXX.X>X-XoXt.s.a.a.t.f.a.h.oXoXt.W i.oXa.t.t.a.,X{.&X_.&X{.{.[.).).[._.$X$X_.,X(.(./.(._.*X",
"p..X%X,X%XXX$X@X%X,X.XL.Q.~.!.H.K.I.XXXXL..X%X$X(..Xs.t.a.#X#Xa.oXa.z.l.OXOXOXi.y.*X2X_._.{.[.~.~.!.~.).(.>X>X&X>X$X(.@X&X$X_.&X",
".X.X_.(.3.1.L.^.P.P.(.{.>X>X_.).@XP.@X`.XXP.L./.J.P.XXi.a.(.%X@Xp.y.z.oXoXXXXX&X$X&X>X&X{.).'.~.~.!.!.).{.$X{.$X,X2X*X&X_./.^.W.",
"*X%X$X(.1.P.J.=.H.J.J././.(./.Q.(.(.P.L.$XP./._.{.)._..XP.XXp.$X:Xa.a.oX:X<X3X>X>X,X2X>X{.{._.~.~.)._.@X$X,X<X;X7X,X,X_.^.=.F.F.",
"*X&X4.<.<.3.<.,.:.1.1.P.(.~./.$X%XXXp.p.P..X$X;X;XoX#X$X$Xp.p.:X<X$X8X9XoX<X<X&X3X3X3X2X{.[.{.{.2X3X,X*X-X5X5X6X3X>X/.^.W.H.^.~.",
"XXp.p.U U 5.4.<.;.<.P.`.P.I.3.i.i.r.r.u.r.r.s.:X;X;Xa.i.=X=X*X1X<X3X<X8X6X,X3X<X2X3X3X,X_.{.2X3X>X{.{.{.&X>X2X3X_././.W.^./.(._.",
"$X4.U A U U p.u.;.r.u.p.XX=X*X;Xa. .t.a.oXa.z.qX8X,X%XXX=X%X:XoX;X:X:X-X%X&X,X,X3X3X,X2X{.3X,X>X{.>X_.{.3X2X,X,X2X*X-X*X&X&X_._.",
"_.3.L.3.4.<.5.5.4.p.%X>X2X<X5XoXu.a.u.XXoXOX:Xv.oX;X>X.X%X=X;X;X-X:X1X1X<X_._.>X{.2X>XQ.~.(.[.>X>X{.{.>X3X5X6X,X,X<X*X*X_.(.Q.(.",
"-X6X5X5X5X%Xp.u.4.%X$X%X*X*X1X=XXX#X&X*X3X7X5X5X7X5X&X&X#X:Xv.z.+X<X,X5X5X2X_.{.{.[.).).)._.,X,X>X[.>X5X7X6X7X5X5X,X&X_.(./.(._.",
"*X%X1X5X;X5X<.<.@Xp.%X-X*X,X5X,X*X2X3X3X4X5X6X7X5X5X=Xa.h.eXeXeXrXz.;X5X5X4X2X|.[.^.Q._.,X>X>X$X2X2X_.{.>X7X7X5X,X*X,X$X(.(./.J.",
"&X&X@X3._._.<.(.&X&X&X3X2X$X3X3X4X2X2X2X3X2X3X2X4X7Xn.e.wXsXuXeXdXuXtX-X6X6X5X4X|.[.!.!.^.^.R.W.Q.{.{.{.3X;X3X,X>X_.(./.Q.^.W.R.",
"/.~.2.5.p.:X4.L.{.{./._.&X>X|.|.2X2X|.|.|.|.|.3X3Xz.( ( ( ( ( z ( dXsXiX3X4X5X5X3X3X3X,X&X/.W.!.!.Q.~.[.@X`./.~.[.)./.Q.W.H.R.^.",
"Q.^.4.6.a ( w.<.).)._. X X[.[.|.|.|.2X|.{.{.2X2X=X8.l l u r 7 r w z ( yX7X4X3X3X3X2X{.).).[.{.[. X[.{.2X;X5X5X,X&X/.^.S.R.Q.&X*X",
"(.:Xg.h t h j w.$X~.~.!.!.!.). X X4X2X4X2X2X2X|.6.t i i u 7 7 7 9 w h e.:X{.[.[.~.W.W.Q.).).{.7X7X0X7X5X;X3X2X/.^.S.H.Q.$X>X$X(.",
"h.yX0.f t t E ~ k.8X}.!.Q./. X X|.|.2X2X2X4X3X|.6.0 i i r 5 5 6 7 w r ` v.2X{. X_.|.2X2X2X2X3Xz.j.k.n.v.;X(.T.S.S.Q././.J.S.Z.=.",
"p.a.#X6.R p W W l ` z.>X_./. X X|.|.|.2X2X2X2X2X6.r i i 8 % % 5 h q 7 ( v.3X2X2X2X2X2X|.{.|.7Xx.k.j.x.k.x.#XR.T.^.W.S.V.Z.-.B.G.",
"2./._.`.;.! 7.W t t ~ iX0X2X X X X'.}.}.}.[.'.@XE u d y r 5 5 w z h % i z.3X|. X!.!.E.R.R.W.:XgXzXzXcXzXgX-XR.=.A.=.V.C.V.Y.^.1.",
"=.D.T.W.1.:.5.! p u i wXaXgX3X X].}.}.}.}. X X6.r i l a r r 7 7 q h q ( z.).W.W.!.!.W.H.J.3Xb.gXzXzXcXzXqXW.V.A.A.V.R.T.2.2./.`.",
"=.A.V.G.#.H &.:.8.p p u l wXlX0X'.}.}.E.E.T.^.g 7 l l j r w 6 6 7 q h e.v.2.R.!.[.~.}. X|.=Xx.hXb.b.xXzX&XT.~.J.2.^./.Q.J.:.:.L.",
"W.E.W.T.:.#.#.#.<.7.d p i y e.aX0X X}.].E.E.T.M 6 i l d y r 6 5 5 q r ( k.,X5X4X4X|.|.4X|.s.9.b.zXzXiXv.^.~./.).P.r.#X3.1.H.Q.).",
"'.'.'.!.=.#.H =.!.4.7.f p t i uXvXjX`.R.R.T.E.2.f u d i u r 5 % 5 7 h ( q.2X{.[.'.~.!.E.Q.8Xj.9.7.h.7.#XW.Q.~.3.W s 9._ f.Q.E.T.",
"Y.Y.Y.A.#.#.#.#.Z.A.5.Q f u ~ ` e.wXk.a.n.9Xp.=.R.r.d f u r 7 5 5 h z e.s.W.!.T.Y.Y.Y.Y.:XgXiXn.7.g f s._..Xs.T e e 0 8 j y.2.W.",
"Y.=.D.-.#.=.R.=.#.#.=.1.6.E f u u p d ~ e.eX0.Q ;.6.i f i u r 6 r z ( d.L.(.&X/.R.Y.Y.R.y.k.n.x.z.h.x.iXrXa r 8 R R 8 g ! ;.2.!.",
"-.=.*.&.,.>.,.=.=.A.R.].^.;.Q W W E f f i u u t u 7 6 u i f i i / ( ( g.aXlXlXpXzX7Xv.v.t.w.b.gXx.h.n.8.i t 8 e R e 8 e T t.p.~.",
"Y.Y.Y.=.#.H H #.B.C.C.Y.Y.Y.I.u.r.7.7.W d E f p p i r 0 r 0 t k k q w eXdXeXe.( eXwXrXkXfXiXb.hXhXk.q.s p R R T ! T g T M 5.5.A.",
"-.A.V.A.*.B B $.C.C.C.Y.Y.T.E.E.W.L.3.s.7.W f p u a u t t t y y w 6 r j l / ` ~ ~ ^ iXb.gXxXn.n.gXiXd.Q 7.t.3.H.K.K.2.M M &.m.B.",
"C.C.C.V.&.B B -.A.D.C.Y.Y.Y.Y.Y.Y.Y.Y.R.1.6.f u u u t t r u d k h t t a ~ q.` ~ ^ ^ h.n.b.zXxXjXzX9Xi.<.I.S.G.G.N.*.%.%.B V $.$.",
"&.=.-.=.V H B $.&.Z.Z.A.D.D.D.B.A.=.-.=.=.<.7.d u t t t t a d k h y i d ) g.q.d.w.7.9.x.n.b.zXzXjX8XJ V J G G H J %.&.$.$.M.M.m.",
"B.Z.%.H L L B $.$.%.V N.N.M.N.M.-.&.$.$.%.*.s.Q p u u u a f l l h y j ( d.z.I.I.1.:.<.:.4.z.k.x.qXI.&.N.M.M.Z.B.B.B.B.B.B.B.B.B.",
"-.B.B.#.G #.%.&.M.M.N.N.M.M.M.M.Z.&.B.B.B.Z.p.7.f u d f f l l k h k / g.x.<.M.m.M.$.$.$.$.U.XX8X/.V.A.V.A.C.B.B.-.-.-.-.M.m.m.M.",
"B.A.Z.>.H $.M.B.B.B.B.V.m.B.V.V.B.C.Y.Y.D.H.y.7.f f l E l a l i j ~ ` x.XXB.Z.A.D.A.Z.V.V.B.G.K.M.N.N.$.$.%.%.%.$.$.B $.$.%.V %.",
"-.&.%.L J V %.$.M.B.B.V.C.C.C.D.C.Y.Y.Y.T.3.t.7.8.d 8.8.8.l a l j / rX+XJ.D.A.Z.N.M.M.m.m.m.M.M.M.$.$.$.%.&.&.$.%.$.$.V V V V V ",
"M.M.N.G K V m.B.B.B.V.V.V.B.V.V.Y.Y.Y.W.!.s.7.7.8.8.8.^ / ~ ^ 8.) 0.tX+X2.Z.N.%.V $.m.m.m.M.m.m.m.M.m.M.M.%.V %.J %.%.V V V J V ",
"M.m.M.N.G K J N.M.M.M.Z.B.m.N.N.*.,.4.x.v.7.7.7.8.8.8.0.0.^ ^ ) e.g.tXOX%.J >.J V V V %.V V V V V V $.V %.%.%.%.%.J V V V J V V ",
"V V U.G D F G J %.%.V V V V J J 5.l.k.rXh.7.8.8.W 8.8.q.q.8.0.0.e.rXfXXXN.J J J V V V V V V V V V V V V U.J J >.J J J J J J J J ",
"K K K P I P P K P G K K J V J V u.k.aXrXy.w.8.8.8.8.0.q.q.0.0.e.g.tXfXu.J J U.>.V V V V V V V V V J J J K K K K K J K K G K G G ",
"G K P P D P P P P P G P P P G u.tXlXyX` 7.j.9.9.8.0.q.q.) ^ 0.0.g.iXkX@.P G K K G G G G G H G H G G G P P F I F P F Z F S F D D ",
"I I I O.D D D D D P P P F D @.c.lXaX` a E f.w.q.q.0.q.q.0.0.q.g.yXtXiX@.D D F D S S S S S S S F S S F F D S S X.{ Z Z Z S S S S ",
"[ X.+.O.X.X.X.X.X.D X.X.X.X...wXrX0.a i d w.k.j.j.j.g.j.0.q.g.x.tXiXlX..X.X.O.S S S S S S S C C S S F S X.D X.X.] Z Z C Z C C { ",
"[ } o.} o.X.o.o.X.o.o.o.X.} ) e.^ R a p E 8.j.h.k.h.j.k.h.k.rXx.tXkXaXc.] X.O.X.S S S S S N S S S S S S D X.X.X.] Z Z C C C C { ",
"[ } [ [ [ [ o.o.o.o.o.X.S [ _ / R p ~ _ q.d.....l.g.d.h.c.h.d.e.` yXpXpX} X.X.C { X.N S S S C C D S S S C { Z ] C Z C C C Z Z | ",
"' [ [ [ [ [ o.o.' o.o.o.o.[ E R p / ` x.c.+.O.O.R ` } [ } t.^ / ` yXtXtX} { X.X.] C S S C S S C C C S S { ] { ] ] C C C C C { { ",
"[ [ [ [ o.o.o.[ o.o.X.o.X.} W R ^ q.c.l.+.D O.O.! ..O.X.X.{ t.0._ rXtXtX+.[ X.] X.S S S C C C C S C C S { { ] { { Z C C C C { { ",
"[ [ [ [ ' o.o.' o.X.X.o.X.X.Q Q d.c...O.D O.D O.O.} { S O.X.} t..._ yXc.X.] S ] X.X.N S C C C S S F { S C { ] ] ] ] C C C C { { ",
"[ [ [ [ [ ' o.o.X.X.X.X.X.X.O...@.O.O.O.D D O.O.} X.X.X.X.X.] } ..l.l.+.] [ S X.N S S C C C S C C C C C ] ] ] ] | | C C Z Z | { ",
"[ [ [ [ [ [ ' o.o.o.X.o.X.X.O.O.O.S S S O.S O.X.X.X.{ S X.[ ] X.o.o.O.] { { { ] X.X.S S S S C C S S S C { ] ] ] { Z C C C C C { ",
"[ [ [ [ o.o.o.o.X.X.X.X.X.X.S S O.O.S O.S S S O.X.[ O.S { ] [ o.o.X.] ] ] X.X.X.N N S S N S S S C S S S { ] ] ] { { C C C C Z { ",
"[ [ ' ' ' ' ' ' ' ' ' X.X.' X.X.S O.S C { C S o.] ] { X.X.] ] [ o.[ X.[ ] ] { ] X.X.X.N S N S S C C S C ] ] [ ] ] ] C C C C C Z ",
"[ [ Y $ v 2 ; ; 2 * , v : * Y Y 1 4 F & 1 4 C 4 1 } { { { ] ] ] ] } ] [ ] ] ] S S N S S C F S S S C S S ] ] ] ] { ] C C C C C Z ",
"[ [ Y . : c * * , X * * : X n Y & & Z # @ b Z = $ { { X.X.] [ ] ] ] [ ] ] ] X.' S S N N C N S S S S S S X.] ] ] ] C ] C C C C C ",
"[ [ Y * $ Y * $ , X - * 3 o v N @ @ Z 1 o x Z & X | X.S { X.] [ [ O.] [ ' o.] X.S N S S C S S S C S S S { ] ] ] C C C | C C C Z ",
"[ [ Y : X v * * , X ; c c   3 N 1 O m b o 1 N 1 . ' X.S { O.X.] [ ] X.[ ] X.] X.S S S S N S C C C S S S S ] { ] ] C C C C C C Z ",
"[ [ Y v   , - * , X ; : Y   , N 4 O b b + & N 4 . m { X.S ] [ [ X.} ] [ [ X.X.o.X.X.S S C C C C C S C S S C { ] | Z C Z C C C C ",
"[ [ Y Y X : - # 3 X ; @ N X , n 1   b m = O m 4   c X.X.X.] ] [ [ ] O.] X.X.[ ] ' S S S S S S C S F S C X.S ] ] Z C Z Z C C N C ",
"[ [ Y Y * : - # , + : + n # c c b O 4 b x @ b b X 3 +.{ O.{ ] ] o.] [ } X.X.X.X.X.' S S S S S S S C F S D { C { Z C C N C C Z Z ",
"[ [ v , 2 2 , : , : 3 ; x , x , 4 > 1 1 4 1 3 x : v X.D D ] [ [ ] o.[ X.[ X.X.X.X.' S S C S C S C C C S { { ] ] | Z C C C Z C C ",
"[ o.c : : ; ; v c c c c 3 3 3 3 x b b b x 1 3 > ; m X.O.O.] [ ] o.[ [ } ] [ ] ] ] C C C S C C S S S S C Z ] ] ] { C C C C Z C Z ",
"' o.; . + . X * ; 3 ; & - + @ + * ; = ; & X @ @ @ Y X.S O.] ] [ ] ] X.] ] ] ] } ] ] ' S S S S S S C C C C { ] | Z Z C C C N Z Z ",
"[ ' * X o X X ; & X * + @ X @ @ O X @ & & X + @ . 4 +.X.O.] ] [ +.] [ [ ] ] X.] ] ] C S S S C N S C S S C ] { { | C C C C Z C | ",
"[ o.n v @ * * , c c n 3 3 2 2 3 x c N N N b x & & x O.O.] ] [ ] ] ] ] ] X.[ ] o.] ] ] S S S S S C D S C C ] { C { C Z C C Z C Z ",
"[ [ [ [ ' ' o.' o.o.X.o.X.X.X.X.O.O.O.O.X.O.O.[ [ [ { O.X.[ [ [ [ ] [ ] [ ] X.X.] { C C S C S S S S S C C ] ] C Z N C C C Z C Z ",
"[ [ ' [ o.o.o.o.X.o.o.X.X.X.X.o.O.O.O.O.X.O.O.X.] o.] { X.X.[ ] ] ] O.] ] +.[ ] X.X.X.C C S S S S C S S Z ] ] ] Z C C C C N C Z ",
"' [ [ [ o.o.o.X.X.X.X.X.o.X.o.X.O.O.O.O.O.O.O.X.X.o.X.O.+.o.[ [ } ] o.[ [ O.] O.X.X.X.S S S S S S S D C C ] | C | C N C C C C Z ",
"[ [ [ [ o.o.o.o.o.o.o.o.o.X.X.X.O.O.O.O.O.O.O.+.+.+.o.O.O.X.+.[ o.o.X.+.] o.X.} o.' X.X.S S S S S D S S { { { { { { C C C Z Z Z "
};
