/* XPM */
static char *d1abb180aced4b47bb2c1822ce35681cbxJHXJi10Rgwg0DZ[] = {
/* columns rows colors chars-per-pixel */
"64 64 192 2 ",
"   c #010101",
".  c #0A0204",
"X  c #010A04",
"o  c #0A0B06",
"O  c #01020A",
"+  c #0C030B",
"@  c #030909",
"#  c #0B0B0B",
"$  c #140203",
"%  c #1A0A00",
"&  c #120309",
"*  c #130C0B",
"=  c #1C0006",
"-  c #071108",
";  c #11100E",
":  c #040014",
">  c #0B0E12",
",  c #0A0416",
"<  c #110C12",
"1  c #1B0B19",
"2  c #131313",
"3  c #1A1614",
"4  c #191917",
"5  c #1C1B1B",
"6  c #17161C",
"7  c #26090E",
"8  c #2E0A0A",
"9  c #380D00",
"0  c #200B1E",
"q  c #201F1D",
"w  c #251518",
"e  c #29170D",
"r  c #163418",
"t  c #21211F",
"y  c #24311D",
"u  c #0C0024",
"i  c #350B28",
"p  c #351428",
"a  c #3A1133",
"s  c #252524",
"d  c #2A2725",
"f  c #2B2B2B",
"g  c #25262A",
"h  c #302E2F",
"j  c #31312F",
"k  c #393323",
"l  c #2A2931",
"z  c #382F30",
"x  c #343434",
"c  c #35343B",
"v  c #3C3C3B",
"b  c #393534",
"n  c #4A0A0A",
"m  c #590D00",
"M  c #680F01",
"N  c #740C03",
"B  c #7F1005",
"V  c #56123E",
"C  c #532B21",
"Z  c #473D3D",
"A  c #3E3E48",
"S  c #571847",
"D  c #6D1D56",
"F  c #721759",
"G  c #671B4A",
"H  c #682D4E",
"J  c #463F61",
"K  c #78286F",
"L  c #692E70",
"P  c #762479",
"I  c #3D4047",
"U  c #454545",
"Y  c #4C4C4C",
"T  c #535353",
"R  c #5B5B5B",
"E  c #5D6C41",
"W  c #666666",
"Q  c #63666C",
"!  c gray42",
"~  c #6B6C78",
"^  c #717171",
"/  c #7C7C7C",
"(  c #74777D",
")  c #8C0D00",
"_  c #801100",
"`  c #9D140A",
"'  c #B40D04",
"]  c #BA1508",
"[  c #A60F08",
"{  c #CA1706",
"}  c #DD1F13",
"|  c #D91409",
" . c #EE0F07",
".. c #F61705",
"X. c #D9230B",
"o. c #EE2009",
"O. c #F52403",
"+. c #F2270F",
"@. c #F62B05",
"#. c #F13902",
"$. c #F63209",
"%. c #F83804",
"&. c #91473C",
"*. c #EF4F02",
"=. c #EE4100",
"-. c #F94208",
";. c #EE5904",
":. c #FB580A",
">. c #ED6102",
",. c #F86505",
"<. c #F47D03",
"1. c #FB7216",
"2. c #CF4844",
"3. c #69A73B",
"4. c #7DAF36",
"5. c #7EB732",
"6. c #6FB029",
"7. c #369F74",
"8. c #5DAE45",
"9. c #53A455",
"0. c #42A75B",
"q. c #6BA247",
"w. c #4B9F61",
"e. c #47A477",
"r. c #83B323",
"t. c #95BD26",
"y. c #FC9609",
"u. c #FA8815",
"i. c #F0AA0C",
"p. c #FDA814",
"a. c #FFB310",
"s. c #FA8B20",
"d. c #9BC219",
"f. c #B6D50D",
"g. c #AACD19",
"h. c #BEE111",
"j. c #89C726",
"k. c #C1D31F",
"l. c #ECCA00",
"z. c #F9C10C",
"x. c #F5DA06",
"c. c #FFCB11",
"v. c #FFD713",
"b. c #CDE10A",
"n. c #CCE516",
"m. c #D7F715",
"M. c #DAF515",
"N. c #E1EE0A",
"B. c #EFF90F",
"V. c #F7F50E",
"C. c #EBFA13",
"Z. c #F6FE13",
"A. c #FBEA0F",
"S. c #DCCD34",
"D. c #E7F420",
"F. c #FCEA24",
"G. c #ADC843",
"H. c #6F2E82",
"J. c #6A3A86",
"K. c #6C3593",
"L. c #57569D",
"P. c #664899",
"I. c #577F81",
"U. c #5E50A7",
"Y. c #4E5CB5",
"T. c #5B4CA9",
"R. c #4A65AB",
"E. c #5662B3",
"W. c #4570BA",
"Q. c #3D7AC6",
"!. c #4D6CCD",
"~. c #3C988E",
"^. c #3B96A5",
"/. c #398DBD",
"(. c #3A80BC",
"). c #3A91BE",
"_. c #409695",
"`. c #579588",
"'. c #40A084",
"]. c #4587B9",
"[. c #4590B7",
"{. c #4583C8",
"}. c #828282",
"|. c #8B8B8B",
" X c #9A9A9A",
".X c #929292",
"XX c #9594A2",
"oX c #A3A3A3",
"OX c #ABABAB",
"+X c #B9B9C3",
"@X c #D2D3D7",
"#X c #DCDCE4",
/* pixels */
"U b I v v v v x b b b x j h h h f f f f f f f f g f s f f g g d f s s f s s g s f s g d g d s f s s s s s s t s t t s t 5 q 5 5 ",
"  #                                                     X                                               X         O             ",
"  #   2 + X # X               @                                                                                                 ",
"v x U Y t U Y g                                                                                                                 ",
"W 5 v T f U b Y X                   X   X                 X         X       X       X   X                                       ",
"6 b # 5 2 4 b <                                                                                                                 ",
"    X     <                                         X                                                                           ",
"X     + X     X                                                                                                                 ",
"                                                      X                       X                                                 ",
"                                                        #       +     #     X                                                   ",
"                                                        +             X     +                                                   ",
"                                                    X       X                                                                   ",
"                                                          o   < b       #     X                                                 ",
"                                                  o     X     Y }.#                                                             ",
"                                                  X         4 T W f         +                                                   ",
"                                                      #     h 5   v > X                                                         ",
"                                                .     o   4 h   . 3 h         o                                                 ",
"                                                .         x X +     d 3                                                         ",
"                                                    +   t f         * x .                                                       ",
"                                                    X   x +           f w   @                                                   ",
"                                                  .   f 5   o         . z * o                                                   ",
"                                                    2 h             o   q f                                                     ",
"                                                .   h 2               X   z * = .         X X                                   ",
"                                                  4 h     .     +   X     w Z 7 & *                                             ",
"      X                                         * d   #         . @   . O @ C 2.X.{ ] ` N n 8 %     : : .               X   . . ",
"                                      X   # X   4 f 6 l A c 5   O     . O X e &.:.:.%.%.@.+.} | ] [ B m 9 % + O u , O           ",
"  X o                         # +   X     s T |.@X#X+XXX~ A g > @         O   k S.F.l.i.s.1.:.%.=.#.O.O.o.| ] [ B M n 7 > @ @   ",
"                      X #         t U / OX X/ ^ W / I.~ Q A g > O . . X   +   - E G.h.m.C.V.x.x.p.y.<.>.;.-.$.$.@.O... .| ' ) N ",
"              +           > U / OXOX|.T g   4 5         6 6 5 #   &   X   & + O r `.`.9.6.j.g.b.m.C.C.F.v.a.y.<.,.>.*.=.#.@.+.+.",
"      X X         5 v ^ oXOX|.W f X       # v #   . o             .   X X . &   % J E.Y.{.[.~.e.q.4.t.f.b.M.B.Z.A.x.z.p.u.1.;.;.",
"    #     * U ^  XOX XW d X         + # X s s               @         O       O : w H D L P.L.R.{.[.~.7.0.8.r.t.h.k.M.B.Z.V.v.c.",
"+ # f W oXOX.X( U 2     #     o   o     + b @         O           O + .   -     @ X r ; 1 i S D L L T.!.!.{.^.'.w.9.3.r.d.f.n.M.",
" XOXOX}.U <   X                       o h t                                         # v     o   0 p V F K P.L.R.!.(.).^.'.9.3.6.",
"Y s       X .       X             .   ; b     .                                   o   s q             # 1 a S F P J.P.Y.(.(.(./.",
"    . # X                         o   j t                                             # x o     . .   X     & = 3 p V F P K.T.Y.",
"X                                   t j   .                                           o t g       O   .       X     X > 6 a S G ",
"    @ o       X                   . v ;   .                                             @ j 2   O   O     O + +             + < ",
"+                                 f f                                                     3 j   . . .               .   .     . ",
"        X                       2 b .     o                                                 f 4   X             O O O O O O O O ",
"                                b 5   o                                                 o   3 b .                               ",
"                        @     q b         o   .     X                               o     .   f s   X       +                   ",
"                      + X   * Y f     o                   .                                   t Y <     X X                     ",
"                o           U  Xv 5 t t 5 t t t 5 5 5 w q 5 5 q 5 4 5 5 5 4 4 5 5 3 t 3 5 q 4 b .XU X         X                 ",
"                          o x T b d f d d f d d t d d d d s t t s s s s s s s s t t t t s s t b Y x +                           ",
"                  X   X     X   .   .                                                             o         X                   ",
"                            .               o   .                                 . . X       .   X           .                 ",
"                              o                                                             .                                   ",
"                    #                                                               .           X         X                     ",
"                                                                                                                                ",
"                                                                                                                                ",
"                                                                                                                                ",
"                                                                                                                                ",
"                                                                                                                                ",
"                                                                                                                                ",
"                                                                                                                                ",
"                                                                                                                                ",
"                                                                            .       X               X   #           #           ",
"                                                                      X   X             . X     #     #     #     X   @ X       ",
"                                                                  + x v f g f x T f Y 6   Y h v v v v Y # 5 v x U b # U U v U b ",
"                                                                X   v U R U T U ^ v }.5   Y R Y T v W R # x x T ! v   x c U T T ",
"                                                                    x f f 2 x x x f x v   f b f h v s v 4 < b s f ;   s s f f s ",
"                                                                X     X                 #       @               @             # ",
"2 2 # # > # # > # # # # # # X + # X + X X +   + X o X + + X o O     # #       # # @ o   @ #   # + X #   @ #   # @   # + @ #     ",
"v v v v b c b b b b x x f f f f d f g f f s f s f g s s s s s s f s g t f f f s s q f x 5 g f 5 s f t s t s s t t f t 5 5 t 5 5 "
};
